{
  "materials": [
    {
      "name": "Std_2ep60633.tga",
      "pbrMetallicRoughness": {
        "baseColorTexture": {
          "index": 0,
          "texCoord": 0
        },
        "baseColorFactor": [
          1.10000014,
          1.10000014,
          1.10000014,
          1.0
        ],
        "metallicFactor": 0.5,
        "roughnessFactor": 1
      },
      "alphaMode": "MASK",
      "alphaCutoff": 0.5
    }
  ],
  "images": [
    {
      "uri": "DDCEA2E784417879F5B47124E37DC69E.png"
    }
  ],
  "textures": [
    {
      "name": "2ep60633.png",
      "sampler": 0,
      "source": 0
    }
  ],
  "meshes": [
    {
      "name": "Tr-户外植物17A_01",
      "primitives": [
        {
          "material": 0,
          "mode": 4,
          "indices": 0,
          "attributes": {
            "NORMAL": 2,
            "POSITION": 1,
            "TEXCOORD_0": 3,
            "TEXCOORD_1": 4
          }
        }
      ]
    }
  ],
  "buffers": [
    {
      "byteLength": 50904,
      "uri": "2CA064FF6C82FA81AC0D9655505BC17A.bin"
    }
  ],
  "nodes": [
    {
      "name": "RootNode",
      "translation": [
        0.0,
        0.0,
        0.0
      ],
      "rotation": [
        0.0,
        0.0,
        0.0,
        1.0
      ],
      "scale": [
        1.0,
        1.0,
        1.0
      ],
      "children": [
        1
      ]
    },
    {
      "name": "body",
      "translation": [
        0.0,
        0.0,
        0.0
      ],
      "rotation": [
        -0.70710676908493,
        0.0,
        0.0,
        0.70710676908493
      ],
      "scale": [
        1.0,
        1.0,
        1.0
      ],
      "children": [
        2
      ]
    },
    {
      "name": "Tr-户外植物17A_01",
      "translation": [
        0.0,
        0.0,
        0.0
      ],
      "rotation": [
        0.0,
        0.0,
        0.0,
        1.0
      ],
      "scale": [
        1.0,
        1.0,
        1.0
      ],
      "mesh": 0
    }
  ],
  "asset": {
    "generator": "FBX2glTF",
    "version": "2.0"
  },
  "scene": 0,
  "bufferViews": [
    {
      "buffer": 0,
      "byteLength": 6222,
      "byteOffset": 0,
      "target": 34963
    },
    {
      "buffer": 0,
      "byteLength": 13404,
      "byteOffset": 6224,
      "target": 34962
    },
    {
      "buffer": 0,
      "byteLength": 13404,
      "byteOffset": 19628,
      "target": 34962
    },
    {
      "buffer": 0,
      "byteLength": 8936,
      "byteOffset": 33032,
      "target": 34962
    },
    {
      "buffer": 0,
      "byteLength": 8936,
      "byteOffset": 41968,
      "target": 34962
    }
  ],
  "scenes": [
    {
      "name": "Root Scene",
      "nodes": [
        0
      ]
    }
  ],
  "accessors": [
    {
      "componentType": 5123,
      "type": "SCALAR",
      "count": 3111,
      "bufferView": 0,
      "byteOffset": 0
    },
    {
      "componentType": 5126,
      "type": "VEC3",
      "count": 1117,
      "bufferView": 1,
      "byteOffset": 0,
      "min": [
        -0.703655242919922,
        -0.686119079589844,
        0.0
      ],
      "max": [
        0.703655242919922,
        0.686119079589844,
        4.03186798095703
      ]
    },
    {
      "componentType": 5126,
      "type": "VEC3",
      "count": 1117,
      "bufferView": 2,
      "byteOffset": 0
    },
    {
      "componentType": 5126,
      "type": "VEC2",
      "count": 1117,
      "bufferView": 3,
      "byteOffset": 0
    },
    {
      "componentType": 5126,
      "type": "VEC2",
      "count": 1117,
      "bufferView": 4,
      "byteOffset": 0
    }
  ],
  "samplers": [
    {}
  ]
}
