{
  "materials": [
    {
      "name": "Std_NTexture_01.jpg",
      "pbrMetallicRoughness": {
        "baseColorTexture": {
          "index": 0,
          "texCoord": 0
        },
        "baseColorFactor": [
          1.0,
          1.0,
          1.0,
          1.0
        ],
        "metallicFactor": 0.099999994,
        "roughnessFactor": 1
      },
      "alphaMode": "OPAQUE"
    }
  ],
  "images": [
    {
      "uri": "1944A590ACEFD776F3670942EAF439CC.jpg"
    }
  ],
  "textures": [
    {
      "name": "NTexture_01.jpg",
      "sampler": 0,
      "source": 0
    }
  ],
  "meshes": [
    {
      "name": "Lo-BenchA_01",
      "primitives": [
        {
          "material": 0,
          "mode": 4,
          "indices": 0,
          "attributes": {
            "COLOR_0": 3,
            "NORMAL": 2,
            "POSITION": 1,
            "TEXCOORD_0": 4,
            "TEXCOORD_1": 5
          }
        }
      ]
    }
  ],
  "buffers": [
    {
      "byteLength": 85584,
      "uri": "EB2208018E54F369476F4BAB7D2478CF.bin"
    }
  ],
  "nodes": [
    {
      "name": "RootNode",
      "translation": [
        0.0,
        0.0,
        0.0
      ],
      "rotation": [
        0.0,
        0.0,
        0.0,
        1.0
      ],
      "scale": [
        1.0,
        1.0,
        1.0
      ],
      "children": [
        1
      ]
    },
    {
      "name": "body",
      "translation": [
        0.0,
        0.0,
        0.0
      ],
      "rotation": [
        -0.70710676908493,
        0.0,
        0.0,
        0.70710676908493
      ],
      "scale": [
        0.00999999977648258,
        0.00999999977648258,
        0.00999999977648258
      ],
      "children": [
        2
      ]
    },
    {
      "name": "Lo-BenchA_01",
      "translation": [
        0.0,
        0.0,
        0.0
      ],
      "rotation": [
        0.0,
        0.0,
        0.0,
        1.0
      ],
      "scale": [
        1.0,
        1.0,
        1.0
      ],
      "mesh": 0
    }
  ],
  "asset": {
    "generator": "FBX2glTF",
    "version": "2.0"
  },
  "scene": 0,
  "bufferViews": [
    {
      "buffer": 0,
      "byteLength": 4944,
      "byteOffset": 0,
      "target": 34963
    },
    {
      "buffer": 0,
      "byteLength": 17280,
      "byteOffset": 4944,
      "target": 34962
    },
    {
      "buffer": 0,
      "byteLength": 17280,
      "byteOffset": 22224,
      "target": 34962
    },
    {
      "buffer": 0,
      "byteLength": 23040,
      "byteOffset": 39504,
      "target": 34962
    },
    {
      "buffer": 0,
      "byteLength": 11520,
      "byteOffset": 62544,
      "target": 34962
    },
    {
      "buffer": 0,
      "byteLength": 11520,
      "byteOffset": 74064,
      "target": 34962
    }
  ],
  "scenes": [
    {
      "name": "Root Scene",
      "nodes": [
        0
      ]
    }
  ],
  "accessors": [
    {
      "componentType": 5123,
      "type": "SCALAR",
      "count": 2472,
      "bufferView": 0,
      "byteOffset": 0
    },
    {
      "componentType": 5126,
      "type": "VEC3",
      "count": 1440,
      "bufferView": 1,
      "byteOffset": 0,
      "min": [
        -83.4477844238281,
        -27.4841117858887,
        0.570384979248047
      ],
      "max": [
        83.4477844238281,
        27.4841117858887,
        85.3615417480469
      ]
    },
    {
      "componentType": 5126,
      "type": "VEC3",
      "count": 1440,
      "bufferView": 2,
      "byteOffset": 0
    },
    {
      "componentType": 5126,
      "type": "VEC4",
      "count": 1440,
      "bufferView": 3,
      "byteOffset": 0
    },
    {
      "componentType": 5126,
      "type": "VEC2",
      "count": 1440,
      "bufferView": 4,
      "byteOffset": 0
    },
    {
      "componentType": 5126,
      "type": "VEC2",
      "count": 1440,
      "bufferView": 5,
      "byteOffset": 0
    }
  ],
  "samplers": [
    {}
  ]
}
