{
  "materials": [
    {
      "name": "Std_NTexture_01.jpg",
      "pbrMetallicRoughness": {
        "baseColorTexture": {
          "index": 0,
          "texCoord": 0
        },
        "baseColorFactor": [
          1.0,
          1.0,
          1.0,
          1.0
        ],
        "metallicFactor": 0.099999994,
        "roughnessFactor": 1
      },
      "alphaMode": "OPAQUE"
    }
  ],
  "images": [
    {
      "uri": "B28D5489BF5A5E96877E1ECF12390F5C.jpg"
    }
  ],
  "textures": [
    {
      "name": "NTexture_01.jpg",
      "sampler": 0,
      "source": 0
    }
  ],
  "meshes": [
    {
      "name": "Lo-车道单元06a_01",
      "primitives": [
        {
          "material": 0,
          "mode": 4,
          "indices": 0,
          "attributes": {
            "NORMAL": 2,
            "POSITION": 1,
            "TEXCOORD_0": 3
          }
        }
      ]
    }
  ],
  "buffers": [
    {
      "byteLength": 2452,
      "uri": "F86305F3E9555A33092F47A55AAC9D85.bin"
    }
  ],
  "nodes": [
    {
      "name": "RootNode",
      "translation": [
        0.0,
        0.0,
        0.0
      ],
      "rotation": [
        0.0,
        0.0,
        0.0,
        1.0
      ],
      "scale": [
        1.0,
        1.0,
        1.0
      ],
      "children": [
        1
      ]
    },
    {
      "name": "body",
      "translation": [
        0.0,
        0.0,
        0.0
      ],
      "rotation": [
        -0.70710676908493,
        0.0,
        0.0,
        0.70710676908493
      ],
      "scale": [
        1.0,
        1.0,
        1.0
      ],
      "children": [
        2
      ]
    },
    {
      "name": "Lo-车道单元06a_01",
      "translation": [
        0.0,
        0.0,
        0.0
      ],
      "rotation": [
        0.0,
        0.0,
        0.0,
        1.0
      ],
      "scale": [
        1.0,
        1.0,
        1.0
      ],
      "mesh": 0
    }
  ],
  "asset": {
    "generator": "FBX2glTF",
    "version": "2.0"
  },
  "scene": 0,
  "bufferViews": [
    {
      "buffer": 0,
      "byteLength": 276,
      "byteOffset": 0,
      "target": 34963
    },
    {
      "buffer": 0,
      "byteLength": 816,
      "byteOffset": 276,
      "target": 34962
    },
    {
      "buffer": 0,
      "byteLength": 816,
      "byteOffset": 1092,
      "target": 34962
    },
    {
      "buffer": 0,
      "byteLength": 544,
      "byteOffset": 1908,
      "target": 34962
    }
  ],
  "scenes": [
    {
      "name": "Root Scene",
      "nodes": [
        0
      ]
    }
  ],
  "accessors": [
    {
      "componentType": 5123,
      "type": "SCALAR",
      "count": 138,
      "bufferView": 0,
      "byteOffset": 0
    },
    {
      "componentType": 5126,
      "type": "VEC3",
      "count": 68,
      "bufferView": 1,
      "byteOffset": 0,
      "min": [
        -7.5006103515625,
        -1.7500011920929,
        0.0
      ],
      "max": [
        7.5006103515625,
        1.7500011920929,
        0.100000001490116
      ]
    },
    {
      "componentType": 5126,
      "type": "VEC3",
      "count": 68,
      "bufferView": 2,
      "byteOffset": 0
    },
    {
      "componentType": 5126,
      "type": "VEC2",
      "count": 68,
      "bufferView": 3,
      "byteOffset": 0
    }
  ],
  "samplers": [
    {}
  ]
}
