{
  "materials": [
    {
      "name": "Std_b4.tga",
      "pbrMetallicRoughness": {
        "baseColorTexture": {
          "index": 0,
          "texCoord": 0
        },
        "baseColorFactor": [
          1.0,
          1.0,
          1.0,
          1.0
        ],
        "metallicFactor": 0.1,
        "roughnessFactor": 1
      },
      "alphaMode": "MASK",
      "alphaCutoff": 0.5,
      "doubleSided": true
    },
    {
      "name": "02_-_Default",
      "pbrMetallicRoughness": {
        "baseColorFactor": [
          0.5882353,
          0.5882353,
          0.5882353,
          0.0
        ],
        "metallicFactor": 0.099999994,
        "roughnessFactor": 1
      },
      "alphaMode": "BLEND"
    }
  ],
  "images": [
    {
      "uri": "A16C6569E23A9055ACDC55E52E08DBDC.png"
    }
  ],
  "textures": [
    {
      "name": "b4.png",
      "sampler": 0,
      "source": 0
    }
  ],
  "meshes": [
    {
      "name": "Lo-shu小_08",
      "primitives": [
        {
          "material": 0,
          "mode": 4,
          "indices": 0,
          "attributes": {
            "NORMAL": 2,
            "POSITION": 1,
            "TEXCOORD_0": 3,
            "TEXCOORD_1": 4
          }
        }
      ]
    },
    {
      "name": "Box001",
      "primitives": [
        {
          "material": 1,
          "mode": 4,
          "indices": 5,
          "attributes": {
            "NORMAL": 7,
            "POSITION": 6,
            "TEXCOORD_0": 8,
            "TEXCOORD_1": 9
          }
        }
      ]
    }
  ],
  "buffers": [
    {
      "byteLength": 120792,
      "uri": "6B46CB8823CBB91525D579D82E5DC308.bin"
    }
  ],
  "nodes": [
    {
      "name": "RootNode",
      "translation": [
        0.0,
        0.0,
        0.0
      ],
      "rotation": [
        0.0,
        0.0,
        0.0,
        1.0
      ],
      "scale": [
        1.0,
        1.0,
        1.0
      ],
      "children": [
        1,
        2
      ]
    },
    {
      "name": "Lo-shu小_08",
      "translation": [
        -0.0284442901611328,
        4.92166662216187,
        0.0153595237061381
      ],
      "rotation": [
        -0.697690308094025,
        0.115014009177685,
        0.115014009177685,
        0.697690308094025
      ],
      "scale": [
        1.0,
        1.0,
        1.0
      ],
      "mesh": 0
    },
    {
      "name": "Box001",
      "translation": [
        -0.111081562936306,
        0.0,
        0.230652540922165
      ],
      "rotation": [
        -0.70710676908493,
        0.0,
        0.0,
        0.70710676908493
      ],
      "scale": [
        1.0,
        1.0,
        1.0
      ]
    }
  ],
  "asset": {
    "generator": "FBX2glTF",
    "version": "2.0"
  },
  "scene": 0,
  "bufferViews": [
    {
      "buffer": 0,
      "byteLength": 6480,
      "byteOffset": 0,
      "target": 34963
    },
    {
      "buffer": 0,
      "byteLength": 32952,
      "byteOffset": 6480,
      "target": 34962
    },
    {
      "buffer": 0,
      "byteLength": 32952,
      "byteOffset": 39432,
      "target": 34962
    },
    {
      "buffer": 0,
      "byteLength": 21968,
      "byteOffset": 72384,
      "target": 34962
    },
    {
      "buffer": 0,
      "byteLength": 21968,
      "byteOffset": 94352,
      "target": 34962
    },
    {
      "buffer": 0,
      "byteLength": 312,
      "byteOffset": 116320,
      "target": 34963
    },
    {
      "buffer": 0,
      "byteLength": 1248,
      "byteOffset": 116632,
      "target": 34962
    },
    {
      "buffer": 0,
      "byteLength": 1248,
      "byteOffset": 117880,
      "target": 34962
    },
    {
      "buffer": 0,
      "byteLength": 832,
      "byteOffset": 119128,
      "target": 34962
    },
    {
      "buffer": 0,
      "byteLength": 832,
      "byteOffset": 119960,
      "target": 34962
    }
  ],
  "scenes": [
    {
      "name": "Root Scene",
      "nodes": [
        0
      ]
    }
  ],
  "accessors": [
    {
      "componentType": 5123,
      "type": "SCALAR",
      "count": 3240,
      "bufferView": 0,
      "byteOffset": 0
    },
    {
      "componentType": 5126,
      "type": "VEC3",
      "count": 2746,
      "bufferView": 1,
      "byteOffset": 0,
      "min": [
        -4.12221336364746,
        -3.91384887695313,
        -4.92166662216187
      ],
      "max": [
        4.12221527099609,
        3.91387176513672,
        4.92166662216187
      ]
    },
    {
      "componentType": 5126,
      "type": "VEC3",
      "count": 2746,
      "bufferView": 2,
      "byteOffset": 0
    },
    {
      "componentType": 5126,
      "type": "VEC2",
      "count": 2746,
      "bufferView": 3,
      "byteOffset": 0
    },
    {
      "componentType": 5126,
      "type": "VEC2",
      "count": 2746,
      "bufferView": 4,
      "byteOffset": 0
    },
    {
      "componentType": 5123,
      "type": "SCALAR",
      "count": 156,
      "bufferView": 5,
      "byteOffset": 0
    },
    {
      "componentType": 5126,
      "type": "VEC3",
      "count": 104,
      "bufferView": 6,
      "byteOffset": 0,
      "min": [
        -2.88384222984314,
        -2.14789462089539,
        0.0
      ],
      "max": [
        2.66715931892395,
        2.94269013404846,
        9.33564949035645
      ]
    },
    {
      "componentType": 5126,
      "type": "VEC3",
      "count": 104,
      "bufferView": 7,
      "byteOffset": 0
    },
    {
      "componentType": 5126,
      "type": "VEC2",
      "count": 104,
      "bufferView": 8,
      "byteOffset": 0
    },
    {
      "componentType": 5126,
      "type": "VEC2",
      "count": 104,
      "bufferView": 9,
      "byteOffset": 0
    }
  ],
  "samplers": [
    {}
  ]
}
