{
  "materials": [
    {
      "name": "Std_NTexture_01.jpg办公座椅.bmp",
      "occlusionTexture": {
        "index": 0,
        "texCoord": 1
      },
      "pbrMetallicRoughness": {
        "baseColorTexture": {
          "index": 1,
          "texCoord": 0
        },
        "baseColorFactor": [
          1.0,
          1.0,
          1.0,
          1.0
        ],
        "metallicFactor": 0.099999994,
        "roughnessFactor": 1
      },
      "alphaMode": "OPAQUE"
    }
  ],
  "images": [
    {
      "uri": "A6398FEA673528D8F295641FE63AB7C6.jpg"
    },
    {
      "uri": "B28D5489BF5A5E96877E1ECF12390F5C.jpg"
    }
  ],
  "textures": [
    {
      "name": "办公座椅.jpg",
      "sampler": 0,
      "source": 0
    },
    {
      "name": "NTexture_01.jpg",
      "sampler": 0,
      "source": 1
    }
  ],
  "meshes": [
    {
      "name": "Lo-ZUOZI_01",
      "primitives": [
        {
          "material": 0,
          "mode": 4,
          "indices": 0,
          "attributes": {
            "COLOR_0": 3,
            "NORMAL": 2,
            "POSITION": 1,
            "TEXCOORD_0": 4,
            "TEXCOORD_1": 5
          }
        }
      ]
    }
  ],
  "buffers": [
    {
      "byteLength": 141252,
      "uri": "2492282516909F947D236812E2A18076.bin"
    }
  ],
  "nodes": [
    {
      "name": "RootNode",
      "translation": [
        0.0,
        0.0,
        0.0
      ],
      "rotation": [
        0.0,
        0.0,
        0.0,
        1.0
      ],
      "scale": [
        1.0,
        1.0,
        1.0
      ],
      "children": [
        1
      ]
    },
    {
      "name": "body",
      "translation": [
        0.0,
        0.0,
        -0.0996947959065437
      ],
      "rotation": [
        -0.70710676908493,
        0.0,
        0.0,
        0.70710676908493
      ],
      "scale": [
        0.00100000004749745,
        0.00100000004749745,
        0.00100000004749745
      ],
      "children": [
        2
      ]
    },
    {
      "name": "Lo-ZUOZI_01",
      "translation": [
        0.0,
        0.0,
        0.0
      ],
      "rotation": [
        0.0,
        0.0,
        0.0,
        1.0
      ],
      "scale": [
        1.0,
        1.0,
        1.0
      ],
      "mesh": 0
    }
  ],
  "asset": {
    "generator": "FBX2glTF",
    "version": "2.0"
  },
  "scene": 0,
  "bufferViews": [
    {
      "buffer": 0,
      "byteLength": 9540,
      "byteOffset": 0,
      "target": 34963
    },
    {
      "buffer": 0,
      "byteLength": 28224,
      "byteOffset": 9540,
      "target": 34962
    },
    {
      "buffer": 0,
      "byteLength": 28224,
      "byteOffset": 37764,
      "target": 34962
    },
    {
      "buffer": 0,
      "byteLength": 37632,
      "byteOffset": 65988,
      "target": 34962
    },
    {
      "buffer": 0,
      "byteLength": 18816,
      "byteOffset": 103620,
      "target": 34962
    },
    {
      "buffer": 0,
      "byteLength": 18816,
      "byteOffset": 122436,
      "target": 34962
    }
  ],
  "scenes": [
    {
      "name": "Root Scene",
      "nodes": [
        0
      ]
    }
  ],
  "accessors": [
    {
      "componentType": 5123,
      "type": "SCALAR",
      "count": 4770,
      "bufferView": 0,
      "byteOffset": 0
    },
    {
      "componentType": 5126,
      "type": "VEC3",
      "count": 2352,
      "bufferView": 1,
      "byteOffset": 0,
      "min": [
        -600.0,
        -968.262023925781,
        0.0284194946289063
      ],
      "max": [
        600.0,
        308.063873291016,
        1346.51672363281
      ]
    },
    {
      "componentType": 5126,
      "type": "VEC3",
      "count": 2352,
      "bufferView": 2,
      "byteOffset": 0
    },
    {
      "componentType": 5126,
      "type": "VEC4",
      "count": 2352,
      "bufferView": 3,
      "byteOffset": 0
    },
    {
      "componentType": 5126,
      "type": "VEC2",
      "count": 2352,
      "bufferView": 4,
      "byteOffset": 0
    },
    {
      "componentType": 5126,
      "type": "VEC2",
      "count": 2352,
      "bufferView": 5,
      "byteOffset": 0
    }
  ],
  "samplers": [
    {}
  ]
}
