{
  "materials": [
    {
      "name": "Std_Textures_01.jpg",
      "pbrMetallicRoughness": {
        "baseColorTexture": {
          "index": 0,
          "texCoord": 0
        },
        "baseColorFactor": [
          1.0,
          1.0,
          1.0,
          1.0
        ],
        "metallicFactor": 0.099999994,
        "roughnessFactor": 1
      },
      "alphaMode": "OPAQUE"
    }
  ],
  "images": [
    {
      "uri": "DFE6452C9D77859CC87A42574522F18B.jpg"
    }
  ],
  "textures": [
    {
      "name": "Textures_01.jpg",
      "sampler": 0,
      "source": 0
    }
  ],
  "meshes": [
    {
      "name": "Lo-BO2222DYa_01",
      "primitives": [
        {
          "material": 0,
          "mode": 4,
          "indices": 6,
          "attributes": {
            "COLOR_0": 9,
            "NORMAL": 8,
            "POSITION": 7,
            "TEXCOORD_0": 10,
            "TEXCOORD_1": 11
          }
        }
      ]
    },
    {
      "name": "Lo-BO2222DYa_02",
      "primitives": [
        {
          "material": 0,
          "mode": 4,
          "indices": 12,
          "attributes": {
            "COLOR_0": 15,
            "NORMAL": 14,
            "POSITION": 13,
            "TEXCOORD_0": 16,
            "TEXCOORD_1": 17
          }
        }
      ]
    },
    {
      "name": "Lo-B33663ODY_01",
      "primitives": [
        {
          "material": 0,
          "mode": 4,
          "indices": 18,
          "attributes": {
            "COLOR_0": 21,
            "NORMAL": 20,
            "POSITION": 19,
            "TEXCOORD_0": 22,
            "TEXCOORD_1": 23
          }
        }
      ]
    }
  ],
  "buffers": [
    {
      "byteLength": 10276,
      "uri": "4F9A5F9B03BB570F17985D8150DDD50B.bin"
    }
  ],
  "nodes": [
    {
      "name": "RootNode",
      "translation": [
        0.0,
        0.0,
        0.0
      ],
      "rotation": [
        0.0,
        0.0,
        0.0,
        1.0
      ],
      "scale": [
        1.0,
        1.0,
        1.0
      ],
      "children": [
        1
      ]
    },
    {
      "name": "Body",
      "translation": [
        0.0,
        0.0,
        0.0
      ],
      "rotation": [
        2.1855694143369E-08,
        0.0,
        0.0,
        1.0
      ],
      "scale": [
        1.0,
        1.0,
        1.0
      ],
      "children": [
        2,
        7
      ]
    },
    {
      "name": "Controller",
      "translation": [
        0.0,
        0.0,
        0.0
      ],
      "rotation": [
        3.30872245021211E-24,
        0.0,
        0.0,
        1.0
      ],
      "scale": [
        1.0,
        1.0,
        1.0
      ],
      "children": [
        3,
        5
      ]
    },
    {
      "name": "LeftPiovt",
      "translation": [
        -0.878701627254486,
        0.0,
        0.0
      ],
      "rotation": [
        0.0,
        0.0,
        0.0,
        1.0
      ],
      "scale": [
        1.0,
        1.0,
        1.0
      ],
      "children": [
        4
      ]
    },
    {
      "name": "Lo-BO2222DYa_01",
      "translation": [
        0.0,
        0.0,
        0.0
      ],
      "rotation": [
        3.30872245021211E-24,
        0.0,
        0.0,
        1.0
      ],
      "scale": [
        1.0,
        1.0,
        1.0
      ],
      "mesh": 0
    },
    {
      "name": "RightPiovt",
      "translation": [
        0.877463757991791,
        0.0,
        0.0
      ],
      "rotation": [
        0.0,
        0.0,
        0.0,
        1.0
      ],
      "scale": [
        1.0,
        1.0,
        1.0
      ],
      "children": [
        6
      ]
    },
    {
      "name": "Lo-BO2222DYa_02",
      "translation": [
        0.0,
        0.0,
        0.0
      ],
      "rotation": [
        3.30872245021211E-24,
        0.0,
        0.0,
        1.0
      ],
      "scale": [
        1.0,
        1.0,
        1.0
      ],
      "mesh": 1
    },
    {
      "name": "MENKUANG",
      "translation": [
        0.0,
        0.0,
        0.0
      ],
      "rotation": [
        3.30872245021211E-24,
        0.0,
        0.0,
        1.0
      ],
      "scale": [
        1.0,
        1.0,
        1.0
      ],
      "children": [
        8
      ]
    },
    {
      "name": "Lo-B33663ODY_01",
      "translation": [
        0.0,
        0.0,
        0.0
      ],
      "rotation": [
        0.0,
        0.0,
        0.0,
        1.0
      ],
      "scale": [
        1.0,
        1.0,
        1.0
      ],
      "mesh": 2
    }
  ],
  "asset": {
    "generator": "FBX2glTF",
    "version": "2.0"
  },
  "scene": 0,
  "bufferViews": [
    {
      "buffer": 0,
      "byteLength": 164,
      "byteOffset": 0
    },
    {
      "buffer": 0,
      "byteLength": 656,
      "byteOffset": 164
    },
    {
      "buffer": 0,
      "byteLength": 656,
      "byteOffset": 820
    },
    {
      "buffer": 0,
      "byteLength": 160,
      "byteOffset": 1476
    },
    {
      "buffer": 0,
      "byteLength": 640,
      "byteOffset": 1636
    },
    {
      "buffer": 0,
      "byteLength": 640,
      "byteOffset": 2276
    },
    {
      "buffer": 0,
      "byteLength": 72,
      "byteOffset": 2916,
      "target": 34963
    },
    {
      "buffer": 0,
      "byteLength": 288,
      "byteOffset": 2988,
      "target": 34962
    },
    {
      "buffer": 0,
      "byteLength": 288,
      "byteOffset": 3276,
      "target": 34962
    },
    {
      "buffer": 0,
      "byteLength": 384,
      "byteOffset": 3564,
      "target": 34962
    },
    {
      "buffer": 0,
      "byteLength": 192,
      "byteOffset": 3948,
      "target": 34962
    },
    {
      "buffer": 0,
      "byteLength": 192,
      "byteOffset": 4140,
      "target": 34962
    },
    {
      "buffer": 0,
      "byteLength": 72,
      "byteOffset": 4332,
      "target": 34963
    },
    {
      "buffer": 0,
      "byteLength": 288,
      "byteOffset": 4404,
      "target": 34962
    },
    {
      "buffer": 0,
      "byteLength": 288,
      "byteOffset": 4692,
      "target": 34962
    },
    {
      "buffer": 0,
      "byteLength": 384,
      "byteOffset": 4980,
      "target": 34962
    },
    {
      "buffer": 0,
      "byteLength": 192,
      "byteOffset": 5364,
      "target": 34962
    },
    {
      "buffer": 0,
      "byteLength": 192,
      "byteOffset": 5556,
      "target": 34962
    },
    {
      "buffer": 0,
      "byteLength": 216,
      "byteOffset": 5748,
      "target": 34963
    },
    {
      "buffer": 0,
      "byteLength": 924,
      "byteOffset": 5964,
      "target": 34962
    },
    {
      "buffer": 0,
      "byteLength": 924,
      "byteOffset": 6888,
      "target": 34962
    },
    {
      "buffer": 0,
      "byteLength": 1232,
      "byteOffset": 7812,
      "target": 34962
    },
    {
      "buffer": 0,
      "byteLength": 616,
      "byteOffset": 9044,
      "target": 34962
    },
    {
      "buffer": 0,
      "byteLength": 616,
      "byteOffset": 9660,
      "target": 34962
    }
  ],
  "scenes": [
    {
      "name": "Root Scene",
      "nodes": [
        0
      ]
    }
  ],
  "accessors": [
    {
      "componentType": 5126,
      "type": "SCALAR",
      "count": 41,
      "bufferView": 0,
      "byteOffset": 0,
      "min": [
        0.0
      ],
      "max": [
        1.66666662693024
      ]
    },
    {
      "componentType": 5126,
      "type": "VEC4",
      "count": 41,
      "bufferView": 1,
      "byteOffset": 0
    },
    {
      "componentType": 5126,
      "type": "VEC4",
      "count": 41,
      "bufferView": 2,
      "byteOffset": 0
    },
    {
      "componentType": 5126,
      "type": "SCALAR",
      "count": 40,
      "bufferView": 3,
      "byteOffset": 0,
      "min": [
        -3.33786010742188E-06
      ],
      "max": [
        1.62499678134918
      ]
    },
    {
      "componentType": 5126,
      "type": "VEC4",
      "count": 40,
      "bufferView": 4,
      "byteOffset": 0
    },
    {
      "componentType": 5126,
      "type": "VEC4",
      "count": 40,
      "bufferView": 5,
      "byteOffset": 0
    },
    {
      "componentType": 5123,
      "type": "SCALAR",
      "count": 36,
      "bufferView": 6,
      "byteOffset": 0
    },
    {
      "componentType": 5126,
      "type": "VEC3",
      "count": 24,
      "bufferView": 7,
      "byteOffset": 0,
      "min": [
        0.0010766601189971,
        -5.32632160599178E-09,
        -0.0400002002716064
      ],
      "max": [
        0.881900012493134,
        2.27785205841064,
        0.0399999991059303
      ]
    },
    {
      "componentType": 5126,
      "type": "VEC3",
      "count": 24,
      "bufferView": 8,
      "byteOffset": 0
    },
    {
      "componentType": 5126,
      "type": "VEC4",
      "count": 24,
      "bufferView": 9,
      "byteOffset": 0
    },
    {
      "componentType": 5126,
      "type": "VEC2",
      "count": 24,
      "bufferView": 10,
      "byteOffset": 0
    },
    {
      "componentType": 5126,
      "type": "VEC2",
      "count": 24,
      "bufferView": 11,
      "byteOffset": 0
    },
    {
      "componentType": 5123,
      "type": "SCALAR",
      "count": 36,
      "bufferView": 12,
      "byteOffset": 0
    },
    {
      "componentType": 5126,
      "type": "VEC3",
      "count": 24,
      "bufferView": 13,
      "byteOffset": 0,
      "min": [
        -0.878017425537109,
        -5.32632338234862E-09,
        -0.0400004051625729
      ],
      "max": [
        0.00240440363995731,
        2.27785205841064,
        0.0400000996887684
      ]
    },
    {
      "componentType": 5126,
      "type": "VEC3",
      "count": 24,
      "bufferView": 14,
      "byteOffset": 0
    },
    {
      "componentType": 5126,
      "type": "VEC4",
      "count": 24,
      "bufferView": 15,
      "byteOffset": 0
    },
    {
      "componentType": 5126,
      "type": "VEC2",
      "count": 24,
      "bufferView": 16,
      "byteOffset": 0
    },
    {
      "componentType": 5126,
      "type": "VEC2",
      "count": 24,
      "bufferView": 17,
      "byteOffset": 0
    },
    {
      "componentType": 5123,
      "type": "SCALAR",
      "count": 108,
      "bufferView": 18,
      "byteOffset": 0
    },
    {
      "componentType": 5126,
      "type": "VEC3",
      "count": 77,
      "bufferView": 19,
      "byteOffset": 0,
      "min": [
        -0.899426162242889,
        -1.57914200826781E-07,
        -0.0500002019107342
      ],
      "max": [
        0.899358630180359,
        2.29999971389771,
        0.0500000044703484
      ]
    },
    {
      "componentType": 5126,
      "type": "VEC3",
      "count": 77,
      "bufferView": 20,
      "byteOffset": 0
    },
    {
      "componentType": 5126,
      "type": "VEC4",
      "count": 77,
      "bufferView": 21,
      "byteOffset": 0
    },
    {
      "componentType": 5126,
      "type": "VEC2",
      "count": 77,
      "bufferView": 22,
      "byteOffset": 0
    },
    {
      "componentType": 5126,
      "type": "VEC2",
      "count": 77,
      "bufferView": 23,
      "byteOffset": 0
    }
  ],
  "samplers": [
    {}
  ],
  "animations": [
    {
      "name": "Auto_Open",
      "channels": [
        {
          "sampler": 0,
          "target": {
            "node": 3,
            "path": "rotation"
          }
        },
        {
          "sampler": 1,
          "target": {
            "node": 5,
            "path": "rotation"
          }
        }
      ],
      "samplers": [
        {
          "input": 0,
          "interpolation": "LINEAR",
          "output": 1
        },
        {
          "input": 0,
          "interpolation": "LINEAR",
          "output": 2
        }
      ]
    },
    {
      "name": "Auto_Close",
      "channels": [
        {
          "sampler": 0,
          "target": {
            "node": 3,
            "path": "rotation"
          }
        },
        {
          "sampler": 1,
          "target": {
            "node": 5,
            "path": "rotation"
          }
        }
      ],
      "samplers": [
        {
          "input": 3,
          "interpolation": "LINEAR",
          "output": 4
        },
        {
          "input": 3,
          "interpolation": "LINEAR",
          "output": 5
        }
      ]
    }
  ]
}
