{
  "materials": [
    {
      "name": "xiaofangshuan8",
      "pbrMetallicRoughness": {
        "baseColorTexture": {
          "index": 0,
          "texCoord": 0
        },
        "baseColorFactor": [
          1.10000014,
          1.10000014,
          1.10000014,
          1.0
        ],
        "metallicFactor": 0.0,
        "roughnessFactor": 0.95
      },
      "alphaMode": "OPAQUE"
    },
    {
      "name": "Material_#1",
      "pbrMetallicRoughness": {
        "baseColorTexture": {
          "index": 1,
          "texCoord": 0
        },
        "baseColorFactor": [
          1.0,
          1.0,
          1.0,
          1.0
        ],
        "metallicFactor": 0.1,
        "roughnessFactor": 1
      },
      "alphaMode": "BLEND"
    },
    {
      "name": "07_-_Default",
      "pbrMetallicRoughness": {
        "baseColorFactor": [
          0.572549045,
          0.6745099,
          0.800000131,
          0.299999982
        ],
        "metallicFactor": 0.099999994,
        "roughnessFactor": 0.95
      },
      "alphaMode": "BLEND"
    },
    {
      "name": "Material_#0",
      "pbrMetallicRoughness": {
        "baseColorTexture": {
          "index": 2,
          "texCoord": 0
        },
        "baseColorFactor": [
          1.0,
          1.0,
          1.0,
          1.0
        ],
        "metallicFactor": 0.1,
        "roughnessFactor": 1
      },
      "alphaMode": "OPAQUE"
    }
  ],
  "images": [
    {
      "uri": "4B3DDAAD8F1CE36AF2ECEB2278CDCFED.png"
    },
    {
      "uri": "387ECB3C17F59A810078ED1D3E4E18F6.png"
    },
    {
      "uri": "44FD2005F5474A54D22BC527F70A1280.jpg"
    }
  ],
  "textures": [
    {
      "name": "xiaofanghshuan_f_tga.png",
      "sampler": 0,
      "source": 0
    },
    {
      "name": "XiaofangxiangA_02.png",
      "sampler": 0,
      "source": 1
    },
    {
      "name": "qiang_bai.jpg",
      "sampler": 0,
      "source": 2
    }
  ],
  "meshes": [
    {
      "name": "men",
      "primitives": [
        {
          "material": 0,
          "mode": 4,
          "indices": 4,
          "attributes": {
            "NORMAL": 6,
            "POSITION": 5,
            "TEXCOORD_0": 7,
            "TEXCOORD_1": 8
          }
        },
        {
          "material": 1,
          "mode": 4,
          "indices": 14,
          "attributes": {
            "NORMAL": 16,
            "POSITION": 15,
            "TEXCOORD_0": 17,
            "TEXCOORD_1": 18
          }
        },
        {
          "material": 2,
          "mode": 4,
          "indices": 24,
          "attributes": {
            "NORMAL": 26,
            "POSITION": 25,
            "TEXCOORD_0": 27,
            "TEXCOORD_1": 28
          }
        }
      ]
    },
    {
      "name": "xiaohuoshuan",
      "primitives": [
        {
          "material": 0,
          "mode": 4,
          "indices": 9,
          "attributes": {
            "NORMAL": 11,
            "POSITION": 10,
            "TEXCOORD_0": 12,
            "TEXCOORD_1": 13
          }
        }
      ]
    },
    {
      "name": "qiang",
      "primitives": [
        {
          "material": 3,
          "mode": 4,
          "indices": 19,
          "attributes": {
            "NORMAL": 21,
            "POSITION": 20,
            "TEXCOORD_0": 22,
            "TEXCOORD_1": 23
          }
        }
      ]
    }
  ],
  "buffers": [
    {
      "byteLength": 28676,
      "uri": "5CB2307EE4A8860E3646556068422E90.bin"
    }
  ],
  "nodes": [
    {
      "name": "RootNode",
      "translation": [
        0.0,
        0.0,
        0.0
      ],
      "rotation": [
        0.0,
        0.0,
        0.0,
        1.0
      ],
      "scale": [
        1.0,
        1.0,
        1.0
      ],
      "children": [
        1
      ]
    },
    {
      "name": "Body",
      "translation": [
        0.0,
        0.0,
        0.0
      ],
      "rotation": [
        2.1855694143369E-08,
        0.0,
        0.0,
        1.0
      ],
      "scale": [
        1.0,
        1.0,
        1.0
      ],
      "children": [
        2,
        5
      ]
    },
    {
      "name": "Controller",
      "translation": [
        0.0,
        0.0,
        0.0
      ],
      "rotation": [
        3.30872245021211E-24,
        0.0,
        0.0,
        1.0
      ],
      "scale": [
        1.0,
        1.0,
        1.0
      ],
      "children": [
        3
      ]
    },
    {
      "name": "RightPiovt",
      "translation": [
        0.287941783666611,
        0.399999648332596,
        0.324916064739227
      ],
      "rotation": [
        0.0,
        0.0,
        0.0,
        1.0
      ],
      "scale": [
        1.0,
        1.0,
        1.0
      ],
      "children": [
        4
      ]
    },
    {
      "name": "men",
      "translation": [
        0.0,
        -2.98023223876953E-08,
        -5.96046447753906E-08
      ],
      "rotation": [
        3.30872245021211E-24,
        0.0,
        0.0,
        1.0
      ],
      "scale": [
        1.0,
        1.0,
        1.0
      ],
      "mesh": 0
    },
    {
      "name": "MENKUANG",
      "translation": [
        0.0,
        0.0,
        0.0
      ],
      "rotation": [
        3.30872245021211E-24,
        0.0,
        0.0,
        1.0
      ],
      "scale": [
        1.0,
        1.0,
        1.0
      ],
      "children": [
        6,
        7
      ]
    },
    {
      "name": "xiaohuoshuan",
      "translation": [
        0.0,
        1.49011611938477E-08,
        0.217201441526413
      ],
      "rotation": [
        0.0,
        0.0,
        0.0,
        1.0
      ],
      "scale": [
        1.0,
        1.0,
        1.0
      ],
      "mesh": 1
    },
    {
      "name": "qiang",
      "translation": [
        -9.5367431640625E-07,
        -7.45058059692383E-09,
        -0.124999932944775
      ],
      "rotation": [
        0.0,
        0.0,
        0.0,
        1.0
      ],
      "scale": [
        1.0,
        1.0,
        1.0
      ],
      "mesh": 2
    }
  ],
  "asset": {
    "generator": "FBX2glTF",
    "version": "2.0"
  },
  "scene": 0,
  "bufferViews": [
    {
      "buffer": 0,
      "byteLength": 164,
      "byteOffset": 0
    },
    {
      "buffer": 0,
      "byteLength": 656,
      "byteOffset": 164
    },
    {
      "buffer": 0,
      "byteLength": 160,
      "byteOffset": 820
    },
    {
      "buffer": 0,
      "byteLength": 640,
      "byteOffset": 980
    },
    {
      "buffer": 0,
      "byteLength": 1440,
      "byteOffset": 1620,
      "target": 34963
    },
    {
      "buffer": 0,
      "byteLength": 4524,
      "byteOffset": 3060,
      "target": 34962
    },
    {
      "buffer": 0,
      "byteLength": 4524,
      "byteOffset": 7584,
      "target": 34962
    },
    {
      "buffer": 0,
      "byteLength": 3016,
      "byteOffset": 12108,
      "target": 34962
    },
    {
      "buffer": 0,
      "byteLength": 3016,
      "byteOffset": 15124,
      "target": 34962
    },
    {
      "buffer": 0,
      "byteLength": 888,
      "byteOffset": 18140,
      "target": 34963
    },
    {
      "buffer": 0,
      "byteLength": 2688,
      "byteOffset": 19028,
      "target": 34962
    },
    {
      "buffer": 0,
      "byteLength": 2688,
      "byteOffset": 21716,
      "target": 34962
    },
    {
      "buffer": 0,
      "byteLength": 1792,
      "byteOffset": 24404,
      "target": 34962
    },
    {
      "buffer": 0,
      "byteLength": 1792,
      "byteOffset": 26196,
      "target": 34962
    },
    {
      "buffer": 0,
      "byteLength": 12,
      "byteOffset": 27988,
      "target": 34963
    },
    {
      "buffer": 0,
      "byteLength": 48,
      "byteOffset": 28000,
      "target": 34962
    },
    {
      "buffer": 0,
      "byteLength": 48,
      "byteOffset": 28048,
      "target": 34962
    },
    {
      "buffer": 0,
      "byteLength": 32,
      "byteOffset": 28096,
      "target": 34962
    },
    {
      "buffer": 0,
      "byteLength": 32,
      "byteOffset": 28128,
      "target": 34962
    },
    {
      "buffer": 0,
      "byteLength": 12,
      "byteOffset": 28160,
      "target": 34963
    },
    {
      "buffer": 0,
      "byteLength": 48,
      "byteOffset": 28172,
      "target": 34962
    },
    {
      "buffer": 0,
      "byteLength": 48,
      "byteOffset": 28220,
      "target": 34962
    },
    {
      "buffer": 0,
      "byteLength": 32,
      "byteOffset": 28268,
      "target": 34962
    },
    {
      "buffer": 0,
      "byteLength": 32,
      "byteOffset": 28300,
      "target": 34962
    },
    {
      "buffer": 0,
      "byteLength": 24,
      "byteOffset": 28332,
      "target": 34963
    },
    {
      "buffer": 0,
      "byteLength": 96,
      "byteOffset": 28356,
      "target": 34962
    },
    {
      "buffer": 0,
      "byteLength": 96,
      "byteOffset": 28452,
      "target": 34962
    },
    {
      "buffer": 0,
      "byteLength": 64,
      "byteOffset": 28548,
      "target": 34962
    },
    {
      "buffer": 0,
      "byteLength": 64,
      "byteOffset": 28612,
      "target": 34962
    }
  ],
  "scenes": [
    {
      "name": "Root Scene",
      "nodes": [
        0
      ]
    }
  ],
  "accessors": [
    {
      "componentType": 5126,
      "type": "SCALAR",
      "count": 41,
      "bufferView": 0,
      "byteOffset": 0,
      "min": [
        0.0
      ],
      "max": [
        1.66666662693024
      ]
    },
    {
      "componentType": 5126,
      "type": "VEC4",
      "count": 41,
      "bufferView": 1,
      "byteOffset": 0
    },
    {
      "componentType": 5126,
      "type": "SCALAR",
      "count": 40,
      "bufferView": 2,
      "byteOffset": 0,
      "min": [
        -3.33786010742188E-06
      ],
      "max": [
        1.62499678134918
      ]
    },
    {
      "componentType": 5126,
      "type": "VEC4",
      "count": 40,
      "bufferView": 3,
      "byteOffset": 0
    },
    {
      "componentType": 5123,
      "type": "SCALAR",
      "count": 720,
      "bufferView": 4,
      "byteOffset": 0
    },
    {
      "componentType": 5126,
      "type": "VEC3",
      "count": 377,
      "bufferView": 5,
      "byteOffset": 0,
      "min": [
        -0.575913429260254,
        -0.359373569488525,
        -0.00769482366740704
      ],
      "max": [
        2.86102294921875E-05,
        0.359373569488525,
        0.0161671657115221
      ]
    },
    {
      "componentType": 5126,
      "type": "VEC3",
      "count": 377,
      "bufferView": 6,
      "byteOffset": 0
    },
    {
      "componentType": 5126,
      "type": "VEC2",
      "count": 377,
      "bufferView": 7,
      "byteOffset": 0
    },
    {
      "componentType": 5126,
      "type": "VEC2",
      "count": 377,
      "bufferView": 8,
      "byteOffset": 0
    },
    {
      "componentType": 5123,
      "type": "SCALAR",
      "count": 444,
      "bufferView": 9,
      "byteOffset": 0
    },
    {
      "componentType": 5126,
      "type": "VEC3",
      "count": 224,
      "bufferView": 10,
      "byteOffset": 0,
      "min": [
        -0.325000762939453,
        -4.92463414047961E-07,
        -0.120000466704369
      ],
      "max": [
        0.324999809265137,
        0.799999237060547,
        0.12000036239624
      ]
    },
    {
      "componentType": 5126,
      "type": "VEC3",
      "count": 224,
      "bufferView": 11,
      "byteOffset": 0
    },
    {
      "componentType": 5126,
      "type": "VEC2",
      "count": 224,
      "bufferView": 12,
      "byteOffset": 0
    },
    {
      "componentType": 5126,
      "type": "VEC2",
      "count": 224,
      "bufferView": 13,
      "byteOffset": 0
    },
    {
      "componentType": 5123,
      "type": "SCALAR",
      "count": 6,
      "bufferView": 14,
      "byteOffset": 0
    },
    {
      "componentType": 5126,
      "type": "VEC3",
      "count": 4,
      "bufferView": 15,
      "byteOffset": 0,
      "min": [
        -0.465811908245087,
        -0.234947383403778,
        0.0130033735185862
      ],
      "max": [
        -0.109595894813538,
        0.217936933040619,
        0.0130033874884248
      ]
    },
    {
      "componentType": 5126,
      "type": "VEC3",
      "count": 4,
      "bufferView": 16,
      "byteOffset": 0
    },
    {
      "componentType": 5126,
      "type": "VEC2",
      "count": 4,
      "bufferView": 17,
      "byteOffset": 0
    },
    {
      "componentType": 5126,
      "type": "VEC2",
      "count": 4,
      "bufferView": 18,
      "byteOffset": 0
    },
    {
      "componentType": 5123,
      "type": "SCALAR",
      "count": 6,
      "bufferView": 19,
      "byteOffset": 0
    },
    {
      "componentType": 5126,
      "type": "VEC3",
      "count": 4,
      "bufferView": 20,
      "byteOffset": 0,
      "min": [
        -0.324999809265137,
        -4.76837158203125E-07,
        -1.12851871847397E-07
      ],
      "max": [
        0.325000762939453,
        0.799999237060547,
        -1.74844743128233E-08
      ]
    },
    {
      "componentType": 5126,
      "type": "VEC3",
      "count": 4,
      "bufferView": 21,
      "byteOffset": 0
    },
    {
      "componentType": 5126,
      "type": "VEC2",
      "count": 4,
      "bufferView": 22,
      "byteOffset": 0
    },
    {
      "componentType": 5126,
      "type": "VEC2",
      "count": 4,
      "bufferView": 23,
      "byteOffset": 0
    },
    {
      "componentType": 5123,
      "type": "SCALAR",
      "count": 12,
      "bufferView": 24,
      "byteOffset": 0
    },
    {
      "componentType": 5126,
      "type": "VEC3",
      "count": 8,
      "bufferView": 25,
      "byteOffset": 0,
      "min": [
        -0.536392211914063,
        -0.323211669921875,
        -0.00190744712017477
      ],
      "max": [
        -0.0325126647949219,
        0.320345401763916,
        0.00768668437376618
      ]
    },
    {
      "componentType": 5126,
      "type": "VEC3",
      "count": 8,
      "bufferView": 26,
      "byteOffset": 0
    },
    {
      "componentType": 5126,
      "type": "VEC2",
      "count": 8,
      "bufferView": 27,
      "byteOffset": 0
    },
    {
      "componentType": 5126,
      "type": "VEC2",
      "count": 8,
      "bufferView": 28,
      "byteOffset": 0
    }
  ],
  "samplers": [
    {}
  ],
  "animations": [
    {
      "name": "Auto_Open",
      "channels": [
        {
          "sampler": 0,
          "target": {
            "node": 3,
            "path": "rotation"
          }
        }
      ],
      "samplers": [
        {
          "input": 0,
          "interpolation": "LINEAR",
          "output": 1
        }
      ]
    },
    {
      "name": "Auto_Close",
      "channels": [
        {
          "sampler": 0,
          "target": {
            "node": 3,
            "path": "rotation"
          }
        }
      ],
      "samplers": [
        {
          "input": 2,
          "interpolation": "LINEAR",
          "output": 3
        }
      ]
    }
  ]
}
