{
  "materials": [
    {
      "name": "01_-_Default",
      "pbrMetallicRoughness": {
        "baseColorTexture": {
          "index": 0,
          "texCoord": 0
        },
        "baseColorFactor": [
          1.0,
          1.0,
          1.0,
          1.0
        ],
        "metallicFactor": 0.099999994,
        "roughnessFactor": 0.6
      },
      "alphaMode": "BLEND",
      "doubleSided": true
    },
    {
      "name": "03_-_Default",
      "pbrMetallicRoughness": {
        "baseColorTexture": {
          "index": 1,
          "texCoord": 0
        },
        "baseColorFactor": [
          1.0,
          1.0,
          1.0,
          1.0
        ],
        "metallicFactor": 0.099999994,
        "roughnessFactor": 0.6
      },
      "alphaMode": "OPAQUE"
    }
  ],
  "images": [
    {
      "uri": "D56AC094BE6C0D6A204ADDBFB50B7277.png"
    },
    {
      "uri": "7BC262E478E82F78861A25E94A4F1E33.jpg"
    }
  ],
  "textures": [
    {
      "name": "SNbolimen.png",
      "sampler": 0,
      "source": 0
    },
    {
      "name": "白色.jpg",
      "sampler": 0,
      "source": 1
    }
  ],
  "meshes": [
    {
      "name": "Lo-zuomen_01",
      "primitives": [
        {
          "material": 0,
          "mode": 4,
          "indices": 3,
          "attributes": {
            "NORMAL": 5,
            "POSITION": 4,
            "TEXCOORD_0": 6,
            "TEXCOORD_1": 7
          }
        },
        {
          "material": 1,
          "mode": 4,
          "indices": 13,
          "attributes": {
            "NORMAL": 15,
            "POSITION": 14,
            "TEXCOORD_0": 16,
            "TEXCOORD_1": 17
          }
        }
      ]
    },
    {
      "name": "Lo-youmen_01",
      "primitives": [
        {
          "material": 0,
          "mode": 4,
          "indices": 8,
          "attributes": {
            "NORMAL": 10,
            "POSITION": 9,
            "TEXCOORD_0": 11,
            "TEXCOORD_1": 12
          }
        },
        {
          "material": 1,
          "mode": 4,
          "indices": 18,
          "attributes": {
            "NORMAL": 20,
            "POSITION": 19,
            "TEXCOORD_0": 21,
            "TEXCOORD_1": 22
          }
        }
      ]
    }
  ],
  "buffers": [
    {
      "byteLength": 36104,
      "uri": "B185A60F5AE2A26D832EF2487290CDEC.bin"
    }
  ],
  "nodes": [
    {
      "name": "RootNode",
      "translation": [
        0.0,
        0.0,
        0.0
      ],
      "rotation": [
        0.0,
        0.0,
        0.0,
        1.0
      ],
      "scale": [
        1.0,
        1.0,
        1.0
      ],
      "children": [
        1,
        2
      ]
    },
    {
      "name": "Lo-zuomen_01",
      "translation": [
        -0.600000023841858,
        0.0,
        -4.54747340722069E-15
      ],
      "rotation": [
        2.1855694143369E-08,
        0.0,
        0.0,
        1.0
      ],
      "scale": [
        0.00999999977648258,
        0.00999999977648258,
        0.00999999977648258
      ],
      "mesh": 0
    },
    {
      "name": "Lo-youmen_01",
      "translation": [
        0.600000023841858,
        0.0,
        -4.54747340722069E-15
      ],
      "rotation": [
        2.1855694143369E-08,
        0.0,
        0.0,
        1.0
      ],
      "scale": [
        0.00999999977648258,
        0.00999999977648258,
        0.00999999977648258
      ],
      "mesh": 1
    }
  ],
  "asset": {
    "generator": "FBX2glTF",
    "version": "2.0"
  },
  "scene": 0,
  "bufferViews": [
    {
      "buffer": 0,
      "byteLength": 80,
      "byteOffset": 0
    },
    {
      "buffer": 0,
      "byteLength": 320,
      "byteOffset": 80
    },
    {
      "buffer": 0,
      "byteLength": 320,
      "byteOffset": 400
    },
    {
      "buffer": 0,
      "byteLength": 12,
      "byteOffset": 720,
      "target": 34963
    },
    {
      "buffer": 0,
      "byteLength": 48,
      "byteOffset": 732,
      "target": 34962
    },
    {
      "buffer": 0,
      "byteLength": 48,
      "byteOffset": 780,
      "target": 34962
    },
    {
      "buffer": 0,
      "byteLength": 32,
      "byteOffset": 828,
      "target": 34962
    },
    {
      "buffer": 0,
      "byteLength": 32,
      "byteOffset": 860,
      "target": 34962
    },
    {
      "buffer": 0,
      "byteLength": 12,
      "byteOffset": 892,
      "target": 34963
    },
    {
      "buffer": 0,
      "byteLength": 48,
      "byteOffset": 904,
      "target": 34962
    },
    {
      "buffer": 0,
      "byteLength": 48,
      "byteOffset": 952,
      "target": 34962
    },
    {
      "buffer": 0,
      "byteLength": 32,
      "byteOffset": 1000,
      "target": 34962
    },
    {
      "buffer": 0,
      "byteLength": 32,
      "byteOffset": 1032,
      "target": 34962
    },
    {
      "buffer": 0,
      "byteLength": 2160,
      "byteOffset": 1064,
      "target": 34963
    },
    {
      "buffer": 0,
      "byteLength": 4608,
      "byteOffset": 3224,
      "target": 34962
    },
    {
      "buffer": 0,
      "byteLength": 4608,
      "byteOffset": 7832,
      "target": 34962
    },
    {
      "buffer": 0,
      "byteLength": 3072,
      "byteOffset": 12440,
      "target": 34962
    },
    {
      "buffer": 0,
      "byteLength": 3072,
      "byteOffset": 15512,
      "target": 34962
    },
    {
      "buffer": 0,
      "byteLength": 2160,
      "byteOffset": 18584,
      "target": 34963
    },
    {
      "buffer": 0,
      "byteLength": 4608,
      "byteOffset": 20744,
      "target": 34962
    },
    {
      "buffer": 0,
      "byteLength": 4608,
      "byteOffset": 25352,
      "target": 34962
    },
    {
      "buffer": 0,
      "byteLength": 3072,
      "byteOffset": 29960,
      "target": 34962
    },
    {
      "buffer": 0,
      "byteLength": 3072,
      "byteOffset": 33032,
      "target": 34962
    }
  ],
  "scenes": [
    {
      "name": "Root Scene",
      "nodes": [
        0
      ]
    }
  ],
  "accessors": [
    {
      "componentType": 5126,
      "type": "SCALAR",
      "count": 20,
      "bufferView": 0,
      "byteOffset": 0,
      "min": [
        0.0
      ],
      "max": [
        0.791666686534882
      ]
    },
    {
      "componentType": 5126,
      "type": "VEC4",
      "count": 20,
      "bufferView": 1,
      "byteOffset": 0
    },
    {
      "componentType": 5126,
      "type": "VEC4",
      "count": 20,
      "bufferView": 2,
      "byteOffset": 0
    },
    {
      "componentType": 5123,
      "type": "SCALAR",
      "count": 6,
      "bufferView": 3,
      "byteOffset": 0
    },
    {
      "componentType": 5126,
      "type": "VEC3",
      "count": 4,
      "bufferView": 4,
      "byteOffset": 0,
      "min": [
        0.0,
        0.0,
        0.0
      ],
      "max": [
        61.5170707702637,
        210.0,
        0.0
      ]
    },
    {
      "componentType": 5126,
      "type": "VEC3",
      "count": 4,
      "bufferView": 5,
      "byteOffset": 0
    },
    {
      "componentType": 5126,
      "type": "VEC2",
      "count": 4,
      "bufferView": 6,
      "byteOffset": 0
    },
    {
      "componentType": 5126,
      "type": "VEC2",
      "count": 4,
      "bufferView": 7,
      "byteOffset": 0
    },
    {
      "componentType": 5123,
      "type": "SCALAR",
      "count": 6,
      "bufferView": 8,
      "byteOffset": 0
    },
    {
      "componentType": 5126,
      "type": "VEC3",
      "count": 4,
      "bufferView": 9,
      "byteOffset": 0,
      "min": [
        -58.4829292297363,
        0.0,
        0.0
      ],
      "max": [
        0.0,
        210.0,
        0.0
      ]
    },
    {
      "componentType": 5126,
      "type": "VEC3",
      "count": 4,
      "bufferView": 10,
      "byteOffset": 0
    },
    {
      "componentType": 5126,
      "type": "VEC2",
      "count": 4,
      "bufferView": 11,
      "byteOffset": 0
    },
    {
      "componentType": 5126,
      "type": "VEC2",
      "count": 4,
      "bufferView": 12,
      "byteOffset": 0
    },
    {
      "componentType": 5123,
      "type": "SCALAR",
      "count": 1080,
      "bufferView": 13,
      "byteOffset": 0
    },
    {
      "componentType": 5126,
      "type": "VEC3",
      "count": 384,
      "bufferView": 14,
      "byteOffset": 0,
      "min": [
        53.2429962158203,
        51.2860336303711,
        -7.93876552581787
      ],
      "max": [
        55.8795700073242,
        134.786041259766,
        7.93877220153809
      ]
    },
    {
      "componentType": 5126,
      "type": "VEC3",
      "count": 384,
      "bufferView": 15,
      "byteOffset": 0
    },
    {
      "componentType": 5126,
      "type": "VEC2",
      "count": 384,
      "bufferView": 16,
      "byteOffset": 0
    },
    {
      "componentType": 5126,
      "type": "VEC2",
      "count": 384,
      "bufferView": 17,
      "byteOffset": 0
    },
    {
      "componentType": 5123,
      "type": "SCALAR",
      "count": 1080,
      "bufferView": 18,
      "byteOffset": 0
    },
    {
      "componentType": 5126,
      "type": "VEC3",
      "count": 384,
      "bufferView": 19,
      "byteOffset": 0,
      "min": [
        -53.4637489318848,
        51.2860336303711,
        -7.9387640953064
      ],
      "max": [
        -50.8461036682129,
        134.786041259766,
        7.93877124786377
      ]
    },
    {
      "componentType": 5126,
      "type": "VEC3",
      "count": 384,
      "bufferView": 20,
      "byteOffset": 0
    },
    {
      "componentType": 5126,
      "type": "VEC2",
      "count": 384,
      "bufferView": 21,
      "byteOffset": 0
    },
    {
      "componentType": 5126,
      "type": "VEC2",
      "count": 384,
      "bufferView": 22,
      "byteOffset": 0
    }
  ],
  "samplers": [
    {}
  ],
  "animations": [
    {
      "name": "OpenDoor",
      "channels": [
        {
          "sampler": 0,
          "target": {
            "node": 1,
            "path": "rotation"
          }
        },
        {
          "sampler": 1,
          "target": {
            "node": 2,
            "path": "rotation"
          }
        }
      ],
      "samplers": [
        {
          "input": 0,
          "interpolation": "LINEAR",
          "output": 1
        },
        {
          "input": 0,
          "interpolation": "LINEAR",
          "output": 2
        }
      ]
    }
  ]
}
