{
  "materials": [
    {
      "name": "Std_ABB_低压配电柜_hcj.jpgABB_低压配电柜_LM.bmp",
      "occlusionTexture": {
        "index": 0,
        "texCoord": 1
      },
      "pbrMetallicRoughness": {
        "baseColorTexture": {
          "index": 1,
          "texCoord": 0
        },
        "baseColorFactor": [
          1.0,
          1.0,
          1.0,
          1.0
        ],
        "metallicFactor": 0.1,
        "roughnessFactor": 0.95
      },
      "alphaMode": "OPAQUE"
    }
  ],
  "images": [
    {
      "uri": "88EBC7149115129D9D25719314147BA8.jpg"
    },
    {
      "uri": "635F13A755BF8216EF471754316AAE9C.jpg"
    }
  ],
  "textures": [
    {
      "name": "ABB_低压配电柜_LM.jpg",
      "sampler": 0,
      "source": 0
    },
    {
      "name": "ABB_低压配电柜_hcj.jpg",
      "sampler": 0,
      "source": 1
    }
  ],
  "meshes": [
    {
      "name": "Lo-BODY_01",
      "primitives": [
        {
          "material": 0,
          "mode": 4,
          "indices": 0,
          "attributes": {
            "COLOR_0": 3,
            "NORMAL": 2,
            "POSITION": 1,
            "TEXCOORD_0": 4,
            "TEXCOORD_1": 5
          }
        }
      ]
    }
  ],
  "buffers": [
    {
      "byteLength": 57496,
      "uri": "12BBD8F868E8C095FB61FF64C0060E3D.bin"
    }
  ],
  "nodes": [
    {
      "name": "RootNode",
      "translation": [
        0.0,
        0.0,
        0.0
      ],
      "rotation": [
        0.0,
        0.0,
        0.0,
        1.0
      ],
      "scale": [
        1.0,
        1.0,
        1.0
      ],
      "children": [
        1
      ]
    },
    {
      "name": "body",
      "translation": [
        0.0,
        0.0,
        0.0
      ],
      "rotation": [
        -0.70710676908493,
        0.0,
        0.0,
        0.70710676908493
      ],
      "scale": [
        1.0,
        1.0,
        1.0
      ],
      "children": [
        2
      ]
    },
    {
      "name": "Lo-BODY_01",
      "translation": [
        0.0,
        0.0,
        0.0
      ],
      "rotation": [
        0.0,
        0.0,
        0.0,
        1.0
      ],
      "scale": [
        0.00999999977648258,
        0.00999999977648258,
        0.00999999977648258
      ],
      "mesh": 0
    }
  ],
  "asset": {
    "generator": "FBX2glTF",
    "version": "2.0"
  },
  "scene": 0,
  "bufferViews": [
    {
      "buffer": 0,
      "byteLength": 3120,
      "byteOffset": 0,
      "target": 34963
    },
    {
      "buffer": 0,
      "byteLength": 11652,
      "byteOffset": 3120,
      "target": 34962
    },
    {
      "buffer": 0,
      "byteLength": 11652,
      "byteOffset": 14772,
      "target": 34962
    },
    {
      "buffer": 0,
      "byteLength": 15536,
      "byteOffset": 26424,
      "target": 34962
    },
    {
      "buffer": 0,
      "byteLength": 7768,
      "byteOffset": 41960,
      "target": 34962
    },
    {
      "buffer": 0,
      "byteLength": 7768,
      "byteOffset": 49728,
      "target": 34962
    }
  ],
  "scenes": [
    {
      "name": "Root Scene",
      "nodes": [
        0
      ]
    }
  ],
  "accessors": [
    {
      "componentType": 5123,
      "type": "SCALAR",
      "count": 1560,
      "bufferView": 0,
      "byteOffset": 0
    },
    {
      "componentType": 5126,
      "type": "VEC3",
      "count": 971,
      "bufferView": 1,
      "byteOffset": 0,
      "min": [
        -35.1254196166992,
        -22.1102275848389,
        0.0
      ],
      "max": [
        35.0,
        20.7670021057129,
        190.0
      ]
    },
    {
      "componentType": 5126,
      "type": "VEC3",
      "count": 971,
      "bufferView": 2,
      "byteOffset": 0
    },
    {
      "componentType": 5126,
      "type": "VEC4",
      "count": 971,
      "bufferView": 3,
      "byteOffset": 0
    },
    {
      "componentType": 5126,
      "type": "VEC2",
      "count": 971,
      "bufferView": 4,
      "byteOffset": 0
    },
    {
      "componentType": 5126,
      "type": "VEC2",
      "count": 971,
      "bufferView": 5,
      "byteOffset": 0
    }
  ],
  "samplers": [
    {}
  ]
}
