{
  "materials": [
    {
      "name": "Std_ZTE中兴_ZXR10_3228A.jpg",
      "pbrMetallicRoughness": {
        "baseColorTexture": {
          "index": 0,
          "texCoord": 0
        },
        "baseColorFactor": [
          1.0,
          1.0,
          1.0,
          1.0
        ],
        "metallicFactor": 0.1,
        "roughnessFactor": 0.68
      },
      "alphaMode": "OPAQUE"
    },
    {
      "name": "Std_ZTE中兴_ZXR10_3228A.jpgLightingMap_20150602设备分类创建_架式设备_ZTE_ZTE中兴_ZXR10_3228A_ZTE中兴_ZXR10_3228A.bmp",
      "occlusionTexture": {
        "index": 1,
        "texCoord": 1
      },
      "pbrMetallicRoughness": {
        "baseColorTexture": {
          "index": 0,
          "texCoord": 0
        },
        "baseColorFactor": [
          1.0,
          1.0,
          1.0,
          1.0
        ],
        "metallicFactor": 0.1,
        "roughnessFactor": 0.68
      },
      "alphaMode": "OPAQUE"
    },
    {
      "name": "TexLibMat_Std_端口01.Lib.png",
      "pbrMetallicRoughness": {
        "baseColorTexture": {
          "index": 2,
          "texCoord": 0
        },
        "baseColorFactor": [
          1.0,
          1.0,
          1.0,
          1.0
        ],
        "metallicFactor": 0.1,
        "roughnessFactor": 1
      },
      "alphaMode": "BLEND"
    }
  ],
  "images": [
    {
      "uri": "9A43252A326F97C527E0FBC435114EDD.jpg"
    },
    {
      "uri": "A7B8207565E581B9CE388713ACC36295.jpg"
    },
    {
      "uri": "A47FD33DF1CD3FFC8F3CA054B9714F83.png"
    }
  ],
  "textures": [
    {
      "name": "ZTE中兴_ZXR10_3228A.jpg",
      "sampler": 0,
      "source": 0
    },
    {
      "name": "LightingMap_20150602设备分类创建_架式设备_ZTE_ZTE中兴_ZXR10_3228A_ZTE中兴_ZXR10_3228A.jpg",
      "sampler": 0,
      "source": 1
    },
    {
      "name": "端口01.Lib.png",
      "sampler": 0,
      "source": 2
    }
  ],
  "meshes": [
    {
      "name": "Rectangle04",
      "primitives": [
        {
          "material": 0,
          "mode": 4,
          "indices": 0,
          "attributes": {
            "NORMAL": 2,
            "POSITION": 1,
            "TEXCOORD_0": 3,
            "TEXCOORD_1": 4
          }
        }
      ]
    },
    {
      "name": "Lo-BODY_01",
      "primitives": [
        {
          "material": 1,
          "mode": 4,
          "indices": 5,
          "attributes": {
            "COLOR_0": 8,
            "NORMAL": 7,
            "POSITION": 6,
            "TEXCOORD_0": 9,
            "TEXCOORD_1": 10
          }
        }
      ]
    },
    {
      "name": "Lo-RJ45PORT_01",
      "primitives": [
        {
          "material": 2,
          "mode": 4,
          "indices": 11,
          "attributes": {
            "NORMAL": 13,
            "POSITION": 12,
            "TEXCOORD_0": 14,
            "TEXCOORD_1": 15
          }
        }
      ]
    },
    {
      "name": "Lo-OUTPORT_01",
      "primitives": [
        {
          "material": 2,
          "mode": 4,
          "indices": 16,
          "attributes": {
            "NORMAL": 18,
            "POSITION": 17,
            "TEXCOORD_0": 19,
            "TEXCOORD_1": 20
          }
        }
      ]
    },
    {
      "name": "Lo-POWERPORT_01",
      "primitives": [
        {
          "material": 2,
          "mode": 4,
          "indices": 21,
          "attributes": {
            "NORMAL": 23,
            "POSITION": 22,
            "TEXCOORD_0": 24,
            "TEXCOORD_1": 25
          }
        }
      ]
    }
  ],
  "buffers": [
    {
      "byteLength": 18160,
      "uri": "0005E4C63CC541206C0DB064F34EFDDE.bin"
    }
  ],
  "nodes": [
    {
      "name": "RootNode",
      "translation": [
        0.0,
        0.0,
        0.0
      ],
      "rotation": [
        0.0,
        0.0,
        0.0,
        1.0
      ],
      "scale": [
        1.0,
        1.0,
        1.0
      ],
      "children": [
        1,
        2,
        3,
        4,
        5,
        6,
        7,
        8,
        9,
        10,
        11,
        12,
        13,
        14,
        15,
        16,
        17,
        18,
        19,
        20,
        21,
        22,
        23,
        24,
        25,
        26,
        27,
        28,
        29,
        30
      ]
    },
    {
      "name": "Rectangle04",
      "translation": [
        0.174755021929741,
        0.0315365791320801,
        1.37850764136971E-09
      ],
      "rotation": [
        2.1855694143369E-08,
        0.0,
        0.0,
        1.0
      ],
      "scale": [
        0.00999999977648258,
        0.00999999977648258,
        0.00999999977648258
      ],
      "mesh": 0
    },
    {
      "name": "Lo-BODY_01",
      "translation": [
        0.0,
        0.0,
        0.0
      ],
      "rotation": [
        2.1855694143369E-08,
        0.0,
        0.0,
        1.0
      ],
      "scale": [
        0.00999999977648258,
        0.00999999977648258,
        0.00999999977648258
      ],
      "mesh": 1
    },
    {
      "name": "Lo-RJ45PORT_01",
      "translation": [
        -0.124351941049099,
        0.0277063529938459,
        0.000110410779598169
      ],
      "rotation": [
        2.1855694143369E-08,
        0.0,
        0.0,
        1.0
      ],
      "scale": [
        0.00999999977648258,
        0.00999999977648258,
        0.00999999977648258
      ],
      "mesh": 2
    },
    {
      "name": "Lo-RJ45PORT_02",
      "translation": [
        -0.109051950275898,
        0.0277063529938459,
        0.000110410779598169
      ],
      "rotation": [
        2.1855694143369E-08,
        0.0,
        0.0,
        1.0
      ],
      "scale": [
        0.00999999977648258,
        0.00999999977648258,
        0.00999999977648258
      ],
      "mesh": 2
    },
    {
      "name": "Lo-RJ45PORT_03",
      "translation": [
        -0.0937519669532776,
        0.0277063529938459,
        0.000110410779598169
      ],
      "rotation": [
        2.1855694143369E-08,
        0.0,
        0.0,
        1.0
      ],
      "scale": [
        0.00999999977648258,
        0.00999999977648258,
        0.00999999977648258
      ],
      "mesh": 2
    },
    {
      "name": "Lo-RJ45PORT_04",
      "translation": [
        -0.0784519761800766,
        0.0277063529938459,
        0.000110410779598169
      ],
      "rotation": [
        2.1855694143369E-08,
        0.0,
        0.0,
        1.0
      ],
      "scale": [
        0.00999999977648258,
        0.00999999977648258,
        0.00999999977648258
      ],
      "mesh": 2
    },
    {
      "name": "Lo-RJ45PORT_05",
      "translation": [
        -0.0631519854068756,
        0.0277063529938459,
        0.000110410779598169
      ],
      "rotation": [
        2.1855694143369E-08,
        0.0,
        0.0,
        1.0
      ],
      "scale": [
        0.00999999977648258,
        0.00999999977648258,
        0.00999999977648258
      ],
      "mesh": 2
    },
    {
      "name": "Lo-RJ45PORT_06",
      "translation": [
        -0.0478520020842552,
        0.0277063529938459,
        0.000110410779598169
      ],
      "rotation": [
        2.1855694143369E-08,
        0.0,
        0.0,
        1.0
      ],
      "scale": [
        0.00999999977648258,
        0.00999999977648258,
        0.00999999977648258
      ],
      "mesh": 2
    },
    {
      "name": "Lo-RJ45PORT_07",
      "translation": [
        -0.125778794288635,
        0.0134024973958731,
        0.000110410153865814
      ],
      "rotation": [
        -4.37113882867379E-08,
        5.96244209560837E-09,
        1.0,
        -4.37113918394516E-08
      ],
      "scale": [
        0.00999999977648258,
        0.00999999977648258,
        0.00999999977648258
      ],
      "mesh": 2
    },
    {
      "name": "Lo-RJ45PORT_08",
      "translation": [
        -0.110478803515434,
        0.0134024973958731,
        0.000110410153865814
      ],
      "rotation": [
        -4.37113882867379E-08,
        5.96244209560837E-09,
        1.0,
        -4.37113918394516E-08
      ],
      "scale": [
        0.00999999977648258,
        0.00999999977648258,
        0.00999999977648258
      ],
      "mesh": 2
    },
    {
      "name": "Lo-RJ45PORT_09",
      "translation": [
        -0.0951788127422333,
        0.0134024973958731,
        0.000110410153865814
      ],
      "rotation": [
        -4.37113882867379E-08,
        5.96244209560837E-09,
        1.0,
        -4.37113918394516E-08
      ],
      "scale": [
        0.00999999977648258,
        0.00999999977648258,
        0.00999999977648258
      ],
      "mesh": 2
    },
    {
      "name": "Lo-RJ45PORT_10",
      "translation": [
        -0.0798788294196129,
        0.0134024973958731,
        0.000110410153865814
      ],
      "rotation": [
        -4.37113882867379E-08,
        5.96244209560837E-09,
        1.0,
        -4.37113918394516E-08
      ],
      "scale": [
        0.00999999977648258,
        0.00999999977648258,
        0.00999999977648258
      ],
      "mesh": 2
    },
    {
      "name": "Lo-RJ45PORT_11",
      "translation": [
        -0.0645788386464119,
        0.0134024973958731,
        0.000110410153865814
      ],
      "rotation": [
        -4.37113882867379E-08,
        5.96244209560837E-09,
        1.0,
        -4.37113918394516E-08
      ],
      "scale": [
        0.00999999977648258,
        0.00999999977648258,
        0.00999999977648258
      ],
      "mesh": 2
    },
    {
      "name": "Lo-RJ45PORT_12",
      "translation": [
        -0.0492788515985012,
        0.0134024973958731,
        0.000110410153865814
      ],
      "rotation": [
        -4.37113882867379E-08,
        5.96244209560837E-09,
        1.0,
        -4.37113918394516E-08
      ],
      "scale": [
        0.00999999977648258,
        0.00999999977648258,
        0.00999999977648258
      ],
      "mesh": 2
    },
    {
      "name": "Lo-RJ45PORT_13",
      "translation": [
        -0.0192044228315353,
        0.0277063529938459,
        0.000110410779598169
      ],
      "rotation": [
        2.1855694143369E-08,
        0.0,
        0.0,
        1.0
      ],
      "scale": [
        0.00999999977648258,
        0.00999999977648258,
        0.00999999977648258
      ],
      "mesh": 2
    },
    {
      "name": "Lo-RJ45PORT_14",
      "translation": [
        -0.00390443555079401,
        0.0277063529938459,
        0.000110410779598169
      ],
      "rotation": [
        2.1855694143369E-08,
        0.0,
        0.0,
        1.0
      ],
      "scale": [
        0.00999999977648258,
        0.00999999977648258,
        0.00999999977648258
      ],
      "mesh": 2
    },
    {
      "name": "Lo-RJ45PORT_15",
      "translation": [
        0.0113955521956086,
        0.0277063529938459,
        0.000110410779598169
      ],
      "rotation": [
        2.1855694143369E-08,
        0.0,
        0.0,
        1.0
      ],
      "scale": [
        0.00999999977648258,
        0.00999999977648258,
        0.00999999977648258
      ],
      "mesh": 2
    },
    {
      "name": "Lo-RJ45PORT_16",
      "translation": [
        0.0266955401748419,
        0.0277063529938459,
        0.000110410779598169
      ],
      "rotation": [
        2.1855694143369E-08,
        0.0,
        0.0,
        1.0
      ],
      "scale": [
        0.00999999977648258,
        0.00999999977648258,
        0.00999999977648258
      ],
      "mesh": 2
    },
    {
      "name": "Lo-RJ45PORT_17",
      "translation": [
        0.0419955253601074,
        0.0277063529938459,
        0.000110410779598169
      ],
      "rotation": [
        2.1855694143369E-08,
        0.0,
        0.0,
        1.0
      ],
      "scale": [
        0.00999999977648258,
        0.00999999977648258,
        0.00999999977648258
      ],
      "mesh": 2
    },
    {
      "name": "Lo-RJ45PORT_18",
      "translation": [
        0.0572955124080181,
        0.0277063529938459,
        0.000110410779598169
      ],
      "rotation": [
        2.1855694143369E-08,
        0.0,
        0.0,
        1.0
      ],
      "scale": [
        0.00999999977648258,
        0.00999999977648258,
        0.00999999977648258
      ],
      "mesh": 2
    },
    {
      "name": "Lo-RJ45PORT_19",
      "translation": [
        -0.0206312723457813,
        0.0134024973958731,
        0.000110410153865814
      ],
      "rotation": [
        -4.37113882867379E-08,
        5.96244209560837E-09,
        1.0,
        -4.37113918394516E-08
      ],
      "scale": [
        0.00999999977648258,
        0.00999999977648258,
        0.00999999977648258
      ],
      "mesh": 2
    },
    {
      "name": "Lo-RJ45PORT_20",
      "translation": [
        -0.00533128483220935,
        0.0134024973958731,
        0.000110410153865814
      ],
      "rotation": [
        -4.37113882867379E-08,
        5.96244209560837E-09,
        1.0,
        -4.37113918394516E-08
      ],
      "scale": [
        0.00999999977648258,
        0.00999999977648258,
        0.00999999977648258
      ],
      "mesh": 2
    },
    {
      "name": "Lo-RJ45PORT_21",
      "translation": [
        0.00996870268136263,
        0.0134024973958731,
        0.000110410153865814
      ],
      "rotation": [
        -4.37113882867379E-08,
        5.96244209560837E-09,
        1.0,
        -4.37113918394516E-08
      ],
      "scale": [
        0.00999999977648258,
        0.00999999977648258,
        0.00999999977648258
      ],
      "mesh": 2
    },
    {
      "name": "Lo-RJ45PORT_22",
      "translation": [
        0.0252686906605959,
        0.0134024973958731,
        0.000110410153865814
      ],
      "rotation": [
        -4.37113882867379E-08,
        5.96244209560837E-09,
        1.0,
        -4.37113918394516E-08
      ],
      "scale": [
        0.00999999977648258,
        0.00999999977648258,
        0.00999999977648258
      ],
      "mesh": 2
    },
    {
      "name": "Lo-RJ45PORT_23",
      "translation": [
        0.0405686758458614,
        0.0134024973958731,
        0.000110410153865814
      ],
      "rotation": [
        -4.37113882867379E-08,
        5.96244209560837E-09,
        1.0,
        -4.37113918394516E-08
      ],
      "scale": [
        0.00999999977648258,
        0.00999999977648258,
        0.00999999977648258
      ],
      "mesh": 2
    },
    {
      "name": "Lo-RJ45PORT_24",
      "translation": [
        0.0558686628937721,
        0.0134024973958731,
        0.000110410153865814
      ],
      "rotation": [
        -4.37113882867379E-08,
        5.96244209560837E-09,
        1.0,
        -4.37113918394516E-08
      ],
      "scale": [
        0.00999999977648258,
        0.00999999977648258,
        0.00999999977648258
      ],
      "mesh": 2
    },
    {
      "name": "Lo-RJ45PORT_25",
      "translation": [
        0.165857300162315,
        0.0207944959402084,
        0.000110410481283907
      ],
      "rotation": [
        2.1855694143369E-08,
        0.0,
        0.0,
        1.0
      ],
      "scale": [
        0.00999999977648258,
        0.00999999977648258,
        0.00999999977648258
      ],
      "mesh": 2
    },
    {
      "name": "Lo-RJ45PORT_26",
      "translation": [
        0.185464203357697,
        0.0207944959402084,
        0.000110410481283907
      ],
      "rotation": [
        2.1855694143369E-08,
        0.0,
        0.0,
        1.0
      ],
      "scale": [
        0.00999999977648258,
        0.00999999977648258,
        0.00999999977648258
      ],
      "mesh": 2
    },
    {
      "name": "Lo-OUTPORT_01",
      "translation": [
        -0.206988856196404,
        0.00769763393327594,
        0.000110409899207298
      ],
      "rotation": [
        2.1855694143369E-08,
        0.0,
        0.0,
        1.0
      ],
      "scale": [
        0.00999999977648258,
        0.00999999977648258,
        0.00999999977648258
      ],
      "mesh": 3
    },
    {
      "name": "Lo-POWERPORT_01",
      "translation": [
        -0.114909194409847,
        0.01776466332376,
        -0.280008554458618
      ],
      "rotation": [
        -1.01657506197672E-15,
        1.0,
        -2.1855694143369E-08,
        -4.37113882867379E-08
      ],
      "scale": [
        0.00999999977648258,
        0.00999999977648258,
        0.00999999977648258
      ],
      "mesh": 4
    }
  ],
  "asset": {
    "generator": "FBX2glTF",
    "version": "2.0"
  },
  "scene": 0,
  "bufferViews": [
    {
      "buffer": 0,
      "byteLength": 12,
      "byteOffset": 0,
      "target": 34963
    },
    {
      "buffer": 0,
      "byteLength": 48,
      "byteOffset": 12,
      "target": 34962
    },
    {
      "buffer": 0,
      "byteLength": 48,
      "byteOffset": 60,
      "target": 34962
    },
    {
      "buffer": 0,
      "byteLength": 32,
      "byteOffset": 108,
      "target": 34962
    },
    {
      "buffer": 0,
      "byteLength": 32,
      "byteOffset": 140,
      "target": 34962
    },
    {
      "buffer": 0,
      "byteLength": 840,
      "byteOffset": 172,
      "target": 34963
    },
    {
      "buffer": 0,
      "byteLength": 3564,
      "byteOffset": 1012,
      "target": 34962
    },
    {
      "buffer": 0,
      "byteLength": 3564,
      "byteOffset": 4576,
      "target": 34962
    },
    {
      "buffer": 0,
      "byteLength": 4752,
      "byteOffset": 8140,
      "target": 34962
    },
    {
      "buffer": 0,
      "byteLength": 2376,
      "byteOffset": 12892,
      "target": 34962
    },
    {
      "buffer": 0,
      "byteLength": 2376,
      "byteOffset": 15268,
      "target": 34962
    },
    {
      "buffer": 0,
      "byteLength": 12,
      "byteOffset": 17644,
      "target": 34963
    },
    {
      "buffer": 0,
      "byteLength": 48,
      "byteOffset": 17656,
      "target": 34962
    },
    {
      "buffer": 0,
      "byteLength": 48,
      "byteOffset": 17704,
      "target": 34962
    },
    {
      "buffer": 0,
      "byteLength": 32,
      "byteOffset": 17752,
      "target": 34962
    },
    {
      "buffer": 0,
      "byteLength": 32,
      "byteOffset": 17784,
      "target": 34962
    },
    {
      "buffer": 0,
      "byteLength": 12,
      "byteOffset": 17816,
      "target": 34963
    },
    {
      "buffer": 0,
      "byteLength": 48,
      "byteOffset": 17828,
      "target": 34962
    },
    {
      "buffer": 0,
      "byteLength": 48,
      "byteOffset": 17876,
      "target": 34962
    },
    {
      "buffer": 0,
      "byteLength": 32,
      "byteOffset": 17924,
      "target": 34962
    },
    {
      "buffer": 0,
      "byteLength": 32,
      "byteOffset": 17956,
      "target": 34962
    },
    {
      "buffer": 0,
      "byteLength": 12,
      "byteOffset": 17988,
      "target": 34963
    },
    {
      "buffer": 0,
      "byteLength": 48,
      "byteOffset": 18000,
      "target": 34962
    },
    {
      "buffer": 0,
      "byteLength": 48,
      "byteOffset": 18048,
      "target": 34962
    },
    {
      "buffer": 0,
      "byteLength": 32,
      "byteOffset": 18096,
      "target": 34962
    },
    {
      "buffer": 0,
      "byteLength": 32,
      "byteOffset": 18128,
      "target": 34962
    }
  ],
  "scenes": [
    {
      "name": "Root Scene",
      "nodes": [
        0
      ]
    }
  ],
  "accessors": [
    {
      "componentType": 5123,
      "type": "SCALAR",
      "count": 6,
      "bufferView": 0,
      "byteOffset": 0
    },
    {
      "componentType": 5126,
      "type": "VEC3",
      "count": 4,
      "bufferView": 1,
      "byteOffset": 0,
      "min": [
        -1.30943202972412,
        -0.157131910324097,
        0.0
      ],
      "max": [
        1.30943202972412,
        0.157131910324097,
        0.0
      ]
    },
    {
      "componentType": 5126,
      "type": "VEC3",
      "count": 4,
      "bufferView": 2,
      "byteOffset": 0
    },
    {
      "componentType": 5126,
      "type": "VEC2",
      "count": 4,
      "bufferView": 3,
      "byteOffset": 0
    },
    {
      "componentType": 5126,
      "type": "VEC2",
      "count": 4,
      "bufferView": 4,
      "byteOffset": 0
    },
    {
      "componentType": 5123,
      "type": "SCALAR",
      "count": 420,
      "bufferView": 5,
      "byteOffset": 0
    },
    {
      "componentType": 5126,
      "type": "VEC3",
      "count": 297,
      "bufferView": 6,
      "byteOffset": 0,
      "min": [
        -22.0,
        -2.41601173911477E-06,
        -28.0000019073486
      ],
      "max": [
        22.0,
        4.39999771118164,
        1.04216074246939E-13
      ]
    },
    {
      "componentType": 5126,
      "type": "VEC3",
      "count": 297,
      "bufferView": 7,
      "byteOffset": 0
    },
    {
      "componentType": 5126,
      "type": "VEC4",
      "count": 297,
      "bufferView": 8,
      "byteOffset": 0
    },
    {
      "componentType": 5126,
      "type": "VEC2",
      "count": 297,
      "bufferView": 9,
      "byteOffset": 0
    },
    {
      "componentType": 5126,
      "type": "VEC2",
      "count": 297,
      "bufferView": 10,
      "byteOffset": 0
    },
    {
      "componentType": 5123,
      "type": "SCALAR",
      "count": 6,
      "bufferView": 11,
      "byteOffset": 0
    },
    {
      "componentType": 5126,
      "type": "VEC3",
      "count": 4,
      "bufferView": 12,
      "byteOffset": 0,
      "min": [
        -0.836341857910156,
        -0.715192794799805,
        0.0
      ],
      "max": [
        0.693657875061035,
        0.725389719009399,
        0.0
      ]
    },
    {
      "componentType": 5126,
      "type": "VEC3",
      "count": 4,
      "bufferView": 13,
      "byteOffset": 0
    },
    {
      "componentType": 5126,
      "type": "VEC2",
      "count": 4,
      "bufferView": 14,
      "byteOffset": 0
    },
    {
      "componentType": 5126,
      "type": "VEC2",
      "count": 4,
      "bufferView": 15,
      "byteOffset": 0
    },
    {
      "componentType": 5123,
      "type": "SCALAR",
      "count": 6,
      "bufferView": 16,
      "byteOffset": 0
    },
    {
      "componentType": 5126,
      "type": "VEC3",
      "count": 4,
      "bufferView": 17,
      "byteOffset": 0,
      "min": [
        -0.405796051025391,
        -0.350000381469727,
        0.0
      ],
      "max": [
        0.367549896240234,
        0.387867033481598,
        0.0
      ]
    },
    {
      "componentType": 5126,
      "type": "VEC3",
      "count": 4,
      "bufferView": 18,
      "byteOffset": 0
    },
    {
      "componentType": 5126,
      "type": "VEC2",
      "count": 4,
      "bufferView": 19,
      "byteOffset": 0
    },
    {
      "componentType": 5126,
      "type": "VEC2",
      "count": 4,
      "bufferView": 20,
      "byteOffset": 0
    },
    {
      "componentType": 5123,
      "type": "SCALAR",
      "count": 6,
      "bufferView": 21,
      "byteOffset": 0
    },
    {
      "componentType": 5126,
      "type": "VEC3",
      "count": 4,
      "bufferView": 22,
      "byteOffset": 0,
      "min": [
        -1.66554069519043,
        -1.15872621536255,
        -1.9073486328125E-06
      ],
      "max": [
        1.66816902160645,
        1.22079467773438,
        0.0
      ]
    },
    {
      "componentType": 5126,
      "type": "VEC3",
      "count": 4,
      "bufferView": 23,
      "byteOffset": 0
    },
    {
      "componentType": 5126,
      "type": "VEC2",
      "count": 4,
      "bufferView": 24,
      "byteOffset": 0
    },
    {
      "componentType": 5126,
      "type": "VEC2",
      "count": 4,
      "bufferView": 25,
      "byteOffset": 0
    }
  ],
  "samplers": [
    {}
  ]
}
