{
  "materials": [
    {
      "name": "Std_股票_女式自行车001.tga",
      "pbrMetallicRoughness": {
        "baseColorTexture": {
          "index": 0,
          "texCoord": 0
        },
        "baseColorFactor": [
          1.0,
          1.0,
          1.0,
          1.0
        ],
        "metallicFactor": 0.099999994,
        "roughnessFactor": 1
      },
      "alphaMode": "MASK",
      "alphaCutoff": 0.5
    }
  ],
  "images": [
    {
      "uri": "34DE621B541DB127875960D896541CC2.png"
    }
  ],
  "textures": [
    {
      "name": "股票_女式自行车001.png",
      "sampler": 0,
      "source": 0
    }
  ],
  "meshes": [
    {
      "name": "Lo-Body_01",
      "primitives": [
        {
          "material": 0,
          "mode": 4,
          "indices": 0,
          "attributes": {
            "NORMAL": 2,
            "POSITION": 1,
            "TEXCOORD_0": 3,
            "TEXCOORD_1": 4
          }
        }
      ]
    }
  ],
  "buffers": [
    {
      "byteLength": 33308,
      "uri": "C104D6F453D27F02737571AE9A375DD5.bin"
    }
  ],
  "nodes": [
    {
      "name": "RootNode",
      "translation": [
        0.0,
        0.0,
        0.0
      ],
      "rotation": [
        0.0,
        0.0,
        0.0,
        1.0
      ],
      "scale": [
        1.0,
        1.0,
        1.0
      ],
      "children": [
        1
      ]
    },
    {
      "name": "body",
      "translation": [
        0.0,
        0.0,
        0.0
      ],
      "rotation": [
        -0.70710676908493,
        0.0,
        0.0,
        0.70710676908493
      ],
      "scale": [
        0.00999999977648258,
        0.00999999977648258,
        0.00999999977648258
      ],
      "children": [
        2
      ]
    },
    {
      "name": "Lo-Body_01",
      "translation": [
        0.0,
        0.0,
        0.0
      ],
      "rotation": [
        0.0,
        0.0,
        0.0,
        1.0
      ],
      "scale": [
        1.0,
        1.0,
        1.0
      ],
      "mesh": 0
    }
  ],
  "asset": {
    "generator": "FBX2glTF",
    "version": "2.0"
  },
  "scene": 0,
  "bufferViews": [
    {
      "buffer": 0,
      "byteLength": 4308,
      "byteOffset": 0,
      "target": 34963
    },
    {
      "buffer": 0,
      "byteLength": 8700,
      "byteOffset": 4308,
      "target": 34962
    },
    {
      "buffer": 0,
      "byteLength": 8700,
      "byteOffset": 13008,
      "target": 34962
    },
    {
      "buffer": 0,
      "byteLength": 5800,
      "byteOffset": 21708,
      "target": 34962
    },
    {
      "buffer": 0,
      "byteLength": 5800,
      "byteOffset": 27508,
      "target": 34962
    }
  ],
  "scenes": [
    {
      "name": "Root Scene",
      "nodes": [
        0
      ]
    }
  ],
  "accessors": [
    {
      "componentType": 5123,
      "type": "SCALAR",
      "count": 2154,
      "bufferView": 0,
      "byteOffset": 0
    },
    {
      "componentType": 5126,
      "type": "VEC3",
      "count": 725,
      "bufferView": 1,
      "byteOffset": 0,
      "min": [
        -32.3944625854492,
        -96.6163482666016,
        -0.970461905002594
      ],
      "max": [
        32.3944625854492,
        112.13907623291,
        152.68115234375
      ]
    },
    {
      "componentType": 5126,
      "type": "VEC3",
      "count": 725,
      "bufferView": 2,
      "byteOffset": 0
    },
    {
      "componentType": 5126,
      "type": "VEC2",
      "count": 725,
      "bufferView": 3,
      "byteOffset": 0
    },
    {
      "componentType": 5126,
      "type": "VEC2",
      "count": 725,
      "bufferView": 4,
      "byteOffset": 0
    }
  ],
  "samplers": [
    {}
  ]
}
