{
  "materials": [
    {
      "name": "Std_tree_003_01_d1_1.jpg",
      "pbrMetallicRoughness": {
        "baseColorTexture": {
          "index": 0,
          "texCoord": 0
        },
        "baseColorFactor": [
          1.0,
          1.0,
          1.0,
          1.0
        ],
        "metallicFactor": 0.1,
        "roughnessFactor": 1
      },
      "alphaMode": "OPAQUE"
    },
    {
      "name": "Std_Tree_003_01_D2.tga",
      "pbrMetallicRoughness": {
        "baseColorTexture": {
          "index": 1,
          "texCoord": 0
        },
        "baseColorFactor": [
          1.0,
          1.0,
          1.0,
          1.0
        ],
        "metallicFactor": 0.1,
        "roughnessFactor": 1
      },
      "alphaMode": "MASK",
      "alphaCutoff": 0.5
    },
    {
      "name": "01_-_Default",
      "pbrMetallicRoughness": {
        "baseColorFactor": [
          0.5882353,
          0.5882353,
          0.5882353,
          0.0
        ],
        "metallicFactor": 0.099999994,
        "roughnessFactor": 1
      },
      "alphaMode": "BLEND"
    }
  ],
  "images": [
    {
      "uri": "6FA3AED9F4A0D5BA39DD40A458B78AC9.jpg"
    },
    {
      "uri": "F452BB5ADD74E6334552A356880FD377.png"
    }
  ],
  "textures": [
    {
      "name": "tree_003_01_d1_1.jpg",
      "sampler": 0,
      "source": 0
    },
    {
      "name": "Tree_003_01_D2.png",
      "sampler": 0,
      "source": 1
    }
  ],
  "meshes": [
    {
      "name": "Lo-樱花树_01",
      "primitives": [
        {
          "material": 0,
          "mode": 4,
          "indices": 0,
          "attributes": {
            "COLOR_0": 3,
            "NORMAL": 2,
            "POSITION": 1,
            "TEXCOORD_0": 4,
            "TEXCOORD_1": 5
          }
        },
        {
          "material": 1,
          "mode": 4,
          "indices": 6,
          "attributes": {
            "COLOR_0": 9,
            "NORMAL": 8,
            "POSITION": 7,
            "TEXCOORD_0": 10,
            "TEXCOORD_1": 11
          }
        }
      ]
    },
    {
      "name": "Box001",
      "primitives": [
        {
          "material": 2,
          "mode": 4,
          "indices": 12,
          "attributes": {
            "NORMAL": 14,
            "POSITION": 13,
            "TEXCOORD_0": 15,
            "TEXCOORD_1": 16
          }
        }
      ]
    }
  ],
  "buffers": [
    {
      "byteLength": 77744,
      "uri": "106DE4B740645FE92DEEBDB913BBCF51.bin"
    }
  ],
  "nodes": [
    {
      "name": "RootNode",
      "translation": [
        0.0,
        0.0,
        0.0
      ],
      "rotation": [
        0.0,
        0.0,
        0.0,
        1.0
      ],
      "scale": [
        1.0,
        1.0,
        1.0
      ],
      "children": [
        1,
        2
      ]
    },
    {
      "name": "Lo-樱花树_01",
      "translation": [
        0.0,
        0.0,
        0.0
      ],
      "rotation": [
        -0.70710676908493,
        0.0,
        0.0,
        0.70710676908493
      ],
      "scale": [
        1.0,
        1.0,
        1.0
      ],
      "mesh": 0
    },
    {
      "name": "Box001",
      "translation": [
        0.0734588205814362,
        0.0,
        0.0695031434297562
      ],
      "rotation": [
        -0.70710676908493,
        0.0,
        0.0,
        0.70710676908493
      ],
      "scale": [
        1.0,
        1.0,
        1.0
      ]
    }
  ],
  "asset": {
    "generator": "FBX2glTF",
    "version": "2.0"
  },
  "scene": 0,
  "bufferViews": [
    {
      "buffer": 0,
      "byteLength": 3864,
      "byteOffset": 0,
      "target": 34963
    },
    {
      "buffer": 0,
      "byteLength": 8784,
      "byteOffset": 3864,
      "target": 34962
    },
    {
      "buffer": 0,
      "byteLength": 8784,
      "byteOffset": 12648,
      "target": 34962
    },
    {
      "buffer": 0,
      "byteLength": 11712,
      "byteOffset": 21432,
      "target": 34962
    },
    {
      "buffer": 0,
      "byteLength": 5856,
      "byteOffset": 33144,
      "target": 34962
    },
    {
      "buffer": 0,
      "byteLength": 5856,
      "byteOffset": 39000,
      "target": 34962
    },
    {
      "buffer": 0,
      "byteLength": 2448,
      "byteOffset": 44856,
      "target": 34963
    },
    {
      "buffer": 0,
      "byteLength": 5712,
      "byteOffset": 47304,
      "target": 34962
    },
    {
      "buffer": 0,
      "byteLength": 5712,
      "byteOffset": 53016,
      "target": 34962
    },
    {
      "buffer": 0,
      "byteLength": 7616,
      "byteOffset": 58728,
      "target": 34962
    },
    {
      "buffer": 0,
      "byteLength": 3808,
      "byteOffset": 66344,
      "target": 34962
    },
    {
      "buffer": 0,
      "byteLength": 3808,
      "byteOffset": 70152,
      "target": 34962
    },
    {
      "buffer": 0,
      "byteLength": 264,
      "byteOffset": 73960,
      "target": 34963
    },
    {
      "buffer": 0,
      "byteLength": 1056,
      "byteOffset": 74224,
      "target": 34962
    },
    {
      "buffer": 0,
      "byteLength": 1056,
      "byteOffset": 75280,
      "target": 34962
    },
    {
      "buffer": 0,
      "byteLength": 704,
      "byteOffset": 76336,
      "target": 34962
    },
    {
      "buffer": 0,
      "byteLength": 704,
      "byteOffset": 77040,
      "target": 34962
    }
  ],
  "scenes": [
    {
      "name": "Root Scene",
      "nodes": [
        0
      ]
    }
  ],
  "accessors": [
    {
      "componentType": 5123,
      "type": "SCALAR",
      "count": 1932,
      "bufferView": 0,
      "byteOffset": 0
    },
    {
      "componentType": 5126,
      "type": "VEC3",
      "count": 732,
      "bufferView": 1,
      "byteOffset": 0,
      "min": [
        -1.71222102642059,
        -1.88744699954987,
        -0.901575982570648
      ],
      "max": [
        2.12198901176453,
        2.19443106651306,
        5.72306203842163
      ]
    },
    {
      "componentType": 5126,
      "type": "VEC3",
      "count": 732,
      "bufferView": 2,
      "byteOffset": 0
    },
    {
      "componentType": 5126,
      "type": "VEC4",
      "count": 732,
      "bufferView": 3,
      "byteOffset": 0
    },
    {
      "componentType": 5126,
      "type": "VEC2",
      "count": 732,
      "bufferView": 4,
      "byteOffset": 0
    },
    {
      "componentType": 5126,
      "type": "VEC2",
      "count": 732,
      "bufferView": 5,
      "byteOffset": 0
    },
    {
      "componentType": 5123,
      "type": "SCALAR",
      "count": 1224,
      "bufferView": 6,
      "byteOffset": 0
    },
    {
      "componentType": 5126,
      "type": "VEC3",
      "count": 476,
      "bufferView": 7,
      "byteOffset": 0,
      "min": [
        -4.21435785293579,
        -4.89887762069702,
        1.40396082401276
      ],
      "max": [
        4.2775297164917,
        4.99982976913452,
        7.91148614883423
      ]
    },
    {
      "componentType": 5126,
      "type": "VEC3",
      "count": 476,
      "bufferView": 8,
      "byteOffset": 0
    },
    {
      "componentType": 5126,
      "type": "VEC4",
      "count": 476,
      "bufferView": 9,
      "byteOffset": 0
    },
    {
      "componentType": 5126,
      "type": "VEC2",
      "count": 476,
      "bufferView": 10,
      "byteOffset": 0
    },
    {
      "componentType": 5126,
      "type": "VEC2",
      "count": 476,
      "bufferView": 11,
      "byteOffset": 0
    },
    {
      "componentType": 5123,
      "type": "SCALAR",
      "count": 132,
      "bufferView": 12,
      "byteOffset": 0
    },
    {
      "componentType": 5126,
      "type": "VEC3",
      "count": 88,
      "bufferView": 13,
      "byteOffset": 0,
      "min": [
        -3.29938626289368,
        -2.96685910224915,
        0.0
      ],
      "max": [
        3.16878914833069,
        2.96685910224915,
        7.01257467269897
      ]
    },
    {
      "componentType": 5126,
      "type": "VEC3",
      "count": 88,
      "bufferView": 14,
      "byteOffset": 0
    },
    {
      "componentType": 5126,
      "type": "VEC2",
      "count": 88,
      "bufferView": 15,
      "byteOffset": 0
    },
    {
      "componentType": 5126,
      "type": "VEC2",
      "count": 88,
      "bufferView": 16,
      "byteOffset": 0
    }
  ],
  "samplers": [
    {}
  ]
}
